solid Bracket_T6
facet normal 0.0 0.0 -1.0
  outer loop
    vertex 0.0 0.0 0.0
    vertex 2.5511112605663975 -6.1117714323462184 7.049916206369744e-16
    vertex 0.0 -12.999999999999998 0.0
  endloop
endfacet
facet normal 0.0 0.0 -1.0
  outer loop
    vertex 2.5511112605663975 -6.1117714323462184 7.049916206369744e-16
    vertex 0.0 0.0 0.0
    vertex 2.7009618943233416 -5.749999999999999 7.049916206369744e-16
  endloop
endfacet
facet normal 0.0 0.0 -1.0
  outer loop
    vertex 2.7009618943233416 -5.749999999999999 7.049916206369744e-16
    vertex 0.0 0.0 0.0
    vertex 2.939339828220178 -5.439339828220178 7.049916206369744e-16
  endloop
endfacet
facet normal 0.0 0.0 -1.0
  outer loop
    vertex 2.939339828220178 -5.439339828220178 7.049916206369744e-16
    vertex 0.0 0.0 0.0
    vertex 10.0 0.0 0.0
  endloop
endfacet
facet normal 0.0 0.0 -1.0
  outer loop
    vertex 0.0 -12.999999999999998 0.0
    vertex 2.5511112605663975 -6.1117714323462184 7.049916206369744e-16
    vertex 2.4999999999999996 -6.499999999999999 7.049916206369744e-16
  endloop
endfacet
facet normal 0.0 0.0 -1.0
  outer loop
    vertex 2.939339828220178 -5.439339828220178 7.049916206369744e-16
    vertex 10.0 0.0 0.0
    vertex 3.249999999999999 -5.200961894323341 7.049916206369744e-16
  endloop
endfacet
facet normal 0.0 0.0 -1.0
  outer loop
    vertex 3.249999999999999 -5.200961894323341 7.049916206369744e-16
    vertex 10.0 0.0 0.0
    vertex 3.6117714323462184 -5.051111260566397 7.049916206369744e-16
  endloop
endfacet
facet normal 0.0 0.0 -1.0
  outer loop
    vertex 3.6117714323462184 -5.051111260566397 7.049916206369744e-16
    vertex 10.0 0.0 0.0
    vertex 3.9999999999999996 -4.999999999999999 7.049916206369744e-16
  endloop
endfacet
facet normal 0.0 0.0 -1.0
  outer loop
    vertex 3.9999999999999996 -4.999999999999999 7.049916206369744e-16
    vertex 10.0 0.0 0.0
    vertex 4.388228567653781 -5.051111260566397 7.049916206369744e-16
  endloop
endfacet
facet normal 0.0 0.0 -1.0
  outer loop
    vertex 4.388228567653781 -5.051111260566397 7.049916206369744e-16
    vertex 10.0 0.0 0.0
    vertex 4.75 -5.200961894323341 7.049916206369744e-16
  endloop
endfacet
facet normal 0.0 0.0 -1.0
  outer loop
    vertex 4.75 -5.200961894323341 7.049916206369744e-16
    vertex 10.0 0.0 0.0
    vertex 5.060660171779821 -5.439339828220177 7.049916206369744e-16
  endloop
endfacet
facet normal 0.0 0.0 -1.0
  outer loop
    vertex 5.060660171779821 -5.439339828220177 7.049916206369744e-16
    vertex 10.0 0.0 0.0
    vertex 5.299038105676657 -5.749999999999998 7.049916206369744e-16
  endloop
endfacet
facet normal 0.0 0.0 -1.0
  outer loop
    vertex 5.299038105676657 -5.749999999999998 7.049916206369744e-16
    vertex 10.0 0.0 0.0
    vertex 5.4488887394336025 -6.111771432346218 7.049916206369744e-16
  endloop
endfacet
facet normal 0.0 0.0 -1.0
  outer loop
    vertex 5.4488887394336025 -6.111771432346218 7.049916206369744e-16
    vertex 10.0 0.0 0.0
    vertex 5.5 -6.499999999999999 7.049916206369744e-16
  endloop
endfacet
facet normal 0.0 0.0 -1.0
  outer loop
    vertex 0.0 -12.999999999999998 0.0
    vertex 2.9393398282201786 -7.56066017177982 7.049916206369744e-16
    vertex 10.0 -12.999999999999998 0.0
  endloop
endfacet
facet normal 0.0 0.0 -1.0
  outer loop
    vertex 2.9393398282201786 -7.56066017177982 7.049916206369744e-16
    vertex 0.0 -12.999999999999998 0.0
    vertex 2.7009618943233416 -7.249999999999999 7.049916206369744e-16
  endloop
endfacet
facet normal 0.0 0.0 -1.0
  outer loop
    vertex 2.7009618943233416 -7.249999999999999 7.049916206369744e-16
    vertex 0.0 -12.999999999999998 0.0
    vertex 2.5511112605663975 -6.888228567653781 7.049916206369744e-16
  endloop
endfacet
facet normal 0.0 0.0 -1.0
  outer loop
    vertex 2.5511112605663975 -6.888228567653781 7.049916206369744e-16
    vertex 0.0 -12.999999999999998 0.0
    vertex 2.4999999999999996 -6.499999999999999 7.049916206369744e-16
  endloop
endfacet
facet normal 0.0 0.0 -1.0
  outer loop
    vertex 10.0 -12.999999999999998 0.0
    vertex 2.9393398282201786 -7.56066017177982 7.049916206369744e-16
    vertex 3.2499999999999996 -7.799038105676658 7.049916206369744e-16
  endloop
endfacet
facet normal 0.0 0.0 -1.0
  outer loop
    vertex 10.0 -12.999999999999998 0.0
    vertex 3.2499999999999996 -7.799038105676658 7.049916206369744e-16
    vertex 3.6117714323462184 -7.948888739433602 7.049916206369744e-16
  endloop
endfacet
facet normal 0.0 0.0 -1.0
  outer loop
    vertex 10.0 -12.999999999999998 0.0
    vertex 3.6117714323462184 -7.948888739433602 7.049916206369744e-16
    vertex 3.9999999999999996 -7.999999999999999 7.049916206369744e-16
  endloop
endfacet
facet normal 0.0 0.0 -1.0
  outer loop
    vertex 10.0 -12.999999999999998 0.0
    vertex 3.9999999999999996 -7.999999999999999 7.049916206369744e-16
    vertex 4.3882285676537816 -7.948888739433602 7.049916206369744e-16
  endloop
endfacet
facet normal 0.0 0.0 -1.0
  outer loop
    vertex 10.0 -12.999999999999998 0.0
    vertex 4.3882285676537816 -7.948888739433602 7.049916206369744e-16
    vertex 4.750000000000001 -7.799038105676657 7.049916206369744e-16
  endloop
endfacet
facet normal 0.0 0.0 -1.0
  outer loop
    vertex 10.0 -12.999999999999998 0.0
    vertex 4.750000000000001 -7.799038105676657 7.049916206369744e-16
    vertex 5.060660171779822 -7.56066017177982 7.049916206369744e-16
  endloop
endfacet
facet normal 0.0 0.0 -1.0
  outer loop
    vertex 10.0 -12.999999999999998 0.0
    vertex 5.060660171779822 -7.56066017177982 7.049916206369744e-16
    vertex 5.299038105676659 -7.249999999999998 7.049916206369744e-16
  endloop
endfacet
facet normal 0.0 0.0 -1.0
  outer loop
    vertex 10.0 -12.999999999999998 0.0
    vertex 5.299038105676659 -7.249999999999998 7.049916206369744e-16
    vertex 5.4488887394336025 -6.888228567653779 7.049916206369744e-16
  endloop
endfacet
facet normal 0.0 0.0 -1.0
  outer loop
    vertex 10.0 -12.999999999999998 0.0
    vertex 5.4488887394336025 -6.888228567653779 7.049916206369744e-16
    vertex 5.5 -6.499999999999999 7.049916206369744e-16
  endloop
endfacet
facet normal 0.0 0.0 -1.0
  outer loop
    vertex 10.0 -12.999999999999998 0.0
    vertex 5.5 -6.499999999999999 7.049916206369744e-16
    vertex 10.0 0.0 0.0
  endloop
endfacet
facet normal -0.0 -0.0 1.0
  outer loop
    vertex 0.0 -12.999999999999998 2.0
    vertex 2.5511112605663975 -6.888228567653781 2.0
    vertex 0.0 0.0 2.0
  endloop
endfacet
facet normal -0.0 -0.0 1.0
  outer loop
    vertex 2.5511112605663975 -6.888228567653781 2.0
    vertex 0.0 -12.999999999999998 2.0
    vertex 2.7009618943233416 -7.249999999999999 2.0
  endloop
endfacet
facet normal -0.0 -0.0 1.0
  outer loop
    vertex 2.7009618943233416 -7.249999999999999 2.0
    vertex 0.0 -12.999999999999998 2.0
    vertex 2.9393398282201786 -7.56066017177982 2.0
  endloop
endfacet
facet normal -0.0 -0.0 1.0
  outer loop
    vertex 2.9393398282201786 -7.56066017177982 2.0
    vertex 0.0 -12.999999999999998 2.0
    vertex 7.999999999999999 -12.999999999999998 2.0
  endloop
endfacet
facet normal -0.0 -0.0 1.0
  outer loop
    vertex 0.0 0.0 2.0
    vertex 2.5511112605663975 -6.888228567653781 2.0
    vertex 2.4999999999999996 -6.499999999999999 2.0
  endloop
endfacet
facet normal -0.0 -0.0 1.0
  outer loop
    vertex 2.9393398282201786 -7.56066017177982 2.0
    vertex 7.999999999999999 -12.999999999999998 2.0
    vertex 3.2499999999999996 -7.799038105676658 2.0
  endloop
endfacet
facet normal -0.0 -0.0 1.0
  outer loop
    vertex 3.2499999999999996 -7.799038105676658 2.0
    vertex 7.999999999999999 -12.999999999999998 2.0
    vertex 3.6117714323462184 -7.948888739433602 2.0
  endloop
endfacet
facet normal -0.0 -0.0 1.0
  outer loop
    vertex 3.6117714323462184 -7.948888739433602 2.0
    vertex 7.999999999999999 -12.999999999999998 2.0
    vertex 3.9999999999999996 -7.999999999999999 2.0
  endloop
endfacet
facet normal -0.0 -0.0 1.0
  outer loop
    vertex 3.9999999999999996 -7.999999999999999 2.0
    vertex 7.999999999999999 -12.999999999999998 2.0
    vertex 4.3882285676537816 -7.948888739433602 2.0
  endloop
endfacet
facet normal -0.0 -0.0 1.0
  outer loop
    vertex 4.3882285676537816 -7.948888739433602 2.0
    vertex 7.999999999999999 -12.999999999999998 2.0
    vertex 4.750000000000001 -7.799038105676657 2.0
  endloop
endfacet
facet normal -0.0 -0.0 1.0
  outer loop
    vertex 4.750000000000001 -7.799038105676657 2.0
    vertex 7.999999999999999 -12.999999999999998 2.0
    vertex 5.060660171779822 -7.56066017177982 2.0
  endloop
endfacet
facet normal -0.0 -0.0 1.0
  outer loop
    vertex 5.060660171779822 -7.56066017177982 2.0
    vertex 7.999999999999999 -12.999999999999998 2.0
    vertex 5.299038105676659 -7.249999999999998 2.0
  endloop
endfacet
facet normal -0.0 -0.0 1.0
  outer loop
    vertex 5.299038105676659 -7.249999999999998 2.0
    vertex 7.999999999999999 -12.999999999999998 2.0
    vertex 5.4488887394336025 -6.888228567653779 2.0
  endloop
endfacet
facet normal -0.0 -0.0 1.0
  outer loop
    vertex 5.4488887394336025 -6.888228567653779 2.0
    vertex 7.999999999999999 -12.999999999999998 2.0
    vertex 5.5 -6.499999999999999 2.0
  endloop
endfacet
facet normal -0.0 -0.0 1.0
  outer loop
    vertex 0.0 0.0 2.0
    vertex 2.939339828220178 -5.439339828220178 2.0
    vertex 7.999999999999999 0.0 2.0
  endloop
endfacet
facet normal -0.0 -0.0 1.0
  outer loop
    vertex 2.939339828220178 -5.439339828220178 2.0
    vertex 0.0 0.0 2.0
    vertex 2.7009618943233416 -5.749999999999999 2.0
  endloop
endfacet
facet normal -0.0 -0.0 1.0
  outer loop
    vertex 2.7009618943233416 -5.749999999999999 2.0
    vertex 0.0 0.0 2.0
    vertex 2.5511112605663975 -6.1117714323462184 2.0
  endloop
endfacet
facet normal -0.0 -0.0 1.0
  outer loop
    vertex 2.5511112605663975 -6.1117714323462184 2.0
    vertex 0.0 0.0 2.0
    vertex 2.4999999999999996 -6.499999999999999 2.0
  endloop
endfacet
facet normal -0.0 -0.0 1.0
  outer loop
    vertex 7.999999999999999 0.0 2.0
    vertex 2.939339828220178 -5.439339828220178 2.0
    vertex 3.249999999999999 -5.200961894323341 2.0
  endloop
endfacet
facet normal -0.0 -0.0 1.0
  outer loop
    vertex 7.999999999999999 0.0 2.0
    vertex 3.249999999999999 -5.200961894323341 2.0
    vertex 3.6117714323462184 -5.051111260566397 2.0
  endloop
endfacet
facet normal -0.0 -0.0 1.0
  outer loop
    vertex 7.999999999999999 0.0 2.0
    vertex 3.6117714323462184 -5.051111260566397 2.0
    vertex 3.9999999999999996 -4.999999999999999 2.0
  endloop
endfacet
facet normal -0.0 -0.0 1.0
  outer loop
    vertex 7.999999999999999 0.0 2.0
    vertex 3.9999999999999996 -4.999999999999999 2.0
    vertex 4.388228567653781 -5.051111260566397 2.0
  endloop
endfacet
facet normal -0.0 -0.0 1.0
  outer loop
    vertex 7.999999999999999 0.0 2.0
    vertex 4.388228567653781 -5.051111260566397 2.0
    vertex 4.75 -5.200961894323341 2.0
  endloop
endfacet
facet normal -0.0 -0.0 1.0
  outer loop
    vertex 7.999999999999999 0.0 2.0
    vertex 4.75 -5.200961894323341 2.0
    vertex 5.060660171779821 -5.439339828220177 2.0
  endloop
endfacet
facet normal -0.0 -0.0 1.0
  outer loop
    vertex 7.999999999999999 0.0 2.0
    vertex 5.060660171779821 -5.439339828220177 2.0
    vertex 5.299038105676657 -5.749999999999998 2.0
  endloop
endfacet
facet normal -0.0 -0.0 1.0
  outer loop
    vertex 7.999999999999999 0.0 2.0
    vertex 5.299038105676657 -5.749999999999998 2.0
    vertex 5.4488887394336025 -6.111771432346218 2.0
  endloop
endfacet
facet normal -0.0 -0.0 1.0
  outer loop
    vertex 7.999999999999999 0.0 2.0
    vertex 5.4488887394336025 -6.111771432346218 2.0
    vertex 5.5 -6.499999999999999 2.0
  endloop
endfacet
facet normal -0.0 -0.0 1.0
  outer loop
    vertex 7.999999999999999 0.0 2.0
    vertex 5.5 -6.499999999999999 2.0
    vertex 7.999999999999999 -12.999999999999998 2.0
  endloop
endfacet
facet normal -1.0 0.0 0.0
  outer loop
    vertex 0.0 0.0 2.0
    vertex 0.0 -12.999999999999998 0.0
    vertex 0.0 -12.999999999999998 2.0
  endloop
endfacet
facet normal -1.0 0.0 0.0
  outer loop
    vertex 0.0 -12.999999999999998 0.0
    vertex 0.0 0.0 2.0
    vertex 0.0 0.0 0.0
  endloop
endfacet
facet normal -0.0 1.0 -0.0
  outer loop
    vertex 0.0 0.0 2.0
    vertex 10.0 0.0 0.0
    vertex 0.0 0.0 0.0
  endloop
endfacet
facet normal -0.0 1.0 -0.0
  outer loop
    vertex 10.0 0.0 0.0
    vertex 0.0 0.0 2.0
    vertex 7.999999999999999 0.0 2.0
  endloop
endfacet
facet normal -0.0 1.0 -0.0
  outer loop
    vertex 10.0 0.0 0.0
    vertex 7.999999999999999 0.0 2.0
    vertex 10.0 0.0 10.000000000000004
  endloop
endfacet
facet normal -0.0 1.0 -0.0
  outer loop
    vertex 10.0 0.0 10.000000000000004
    vertex 7.999999999999999 0.0 2.0
    vertex 7.999999999999999 0.0 10.000000000000004
  endloop
endfacet
facet normal 1.0 -0.0 -0.0
  outer loop
    vertex 10.0 -12.999999999999998 0.0
    vertex 9.999999999999996 -7.56066017177982 4.939339828220181
    vertex 10.0 -12.999999999999998 10.000000000000004
  endloop
endfacet
facet normal 1.0 -0.0 -0.0
  outer loop
    vertex 9.999999999999996 -7.56066017177982 4.939339828220181
    vertex 10.0 -12.999999999999998 0.0
    vertex 9.999999999999996 -7.249999999999999 4.700961894323344
  endloop
endfacet
facet normal 1.0 -0.0 -0.0
  outer loop
    vertex 9.999999999999996 -7.249999999999999 4.700961894323344
    vertex 10.0 -12.999999999999998 0.0
    vertex 10.0 0.0 0.0
  endloop
endfacet
facet normal 1.0 -0.0 -0.0
  outer loop
    vertex 10.0 -12.999999999999998 10.000000000000004
    vertex 9.999999999999996 -7.56066017177982 4.939339828220181
    vertex 9.999999999999996 -7.799038105676657 5.250000000000002
  endloop
endfacet
facet normal 1.0 -0.0 -0.0
  outer loop
    vertex 10.0 -12.999999999999998 10.000000000000004
    vertex 9.999999999999996 -7.799038105676657 5.250000000000002
    vertex 9.999999999999996 -7.948888739433602 5.61177143234622
  endloop
endfacet
facet normal 1.0 -0.0 -0.0
  outer loop
    vertex 10.0 -12.999999999999998 10.000000000000004
    vertex 9.999999999999996 -7.948888739433602 5.61177143234622
    vertex 9.999999999999996 -7.999999999999999 6.000000000000002
  endloop
endfacet
facet normal 1.0 -0.0 -0.0
  outer loop
    vertex 9.999999999999996 -7.249999999999999 4.700961894323344
    vertex 10.0 0.0 0.0
    vertex 9.999999999999996 -6.888228567653781 4.551111260566399
  endloop
endfacet
facet normal 1.0 -0.0 -0.0
  outer loop
    vertex 9.999999999999996 -6.888228567653781 4.551111260566399
    vertex 10.0 0.0 0.0
    vertex 9.999999999999996 -6.499999999999999 4.500000000000002
  endloop
endfacet
facet normal 1.0 -0.0 -0.0
  outer loop
    vertex 9.999999999999996 -6.499999999999999 4.500000000000002
    vertex 10.0 0.0 0.0
    vertex 9.999999999999996 -6.1117714323462184 4.551111260566399
  endloop
endfacet
facet normal 1.0 -0.0 -0.0
  outer loop
    vertex 9.999999999999996 -6.1117714323462184 4.551111260566399
    vertex 10.0 0.0 0.0
    vertex 9.999999999999996 -5.75 4.700961894323344
  endloop
endfacet
facet normal 1.0 -0.0 -0.0
  outer loop
    vertex 9.999999999999996 -5.75 4.700961894323344
    vertex 10.0 0.0 0.0
    vertex 9.999999999999996 -5.439339828220178 4.939339828220181
  endloop
endfacet
facet normal 1.0 -0.0 -0.0
  outer loop
    vertex 9.999999999999996 -5.439339828220178 4.939339828220181
    vertex 10.0 0.0 0.0
    vertex 9.999999999999996 -5.200961894323342 5.250000000000001
  endloop
endfacet
facet normal 1.0 -0.0 -0.0
  outer loop
    vertex 9.999999999999996 -5.200961894323342 5.250000000000001
    vertex 10.0 0.0 0.0
    vertex 9.999999999999996 -5.051111260566397 5.61177143234622
  endloop
endfacet
facet normal 1.0 -0.0 -0.0
  outer loop
    vertex 9.999999999999996 -5.051111260566397 5.61177143234622
    vertex 10.0 0.0 0.0
    vertex 9.999999999999996 -4.999999999999999 6.000000000000002
  endloop
endfacet
facet normal 1.0 -0.0 -0.0
  outer loop
    vertex 10.0 -12.999999999999998 10.000000000000004
    vertex 9.999999999999996 -6.888228567653779 7.448888739433604
    vertex 10.0 0.0 10.000000000000004
  endloop
endfacet
facet normal 1.0 -0.0 -0.0
  outer loop
    vertex 9.999999999999996 -6.888228567653779 7.448888739433604
    vertex 10.0 -12.999999999999998 10.000000000000004
    vertex 9.999999999999996 -7.249999999999998 7.299038105676661
  endloop
endfacet
facet normal 1.0 -0.0 -0.0
  outer loop
    vertex 9.999999999999996 -7.249999999999998 7.299038105676661
    vertex 10.0 -12.999999999999998 10.000000000000004
    vertex 9.999999999999996 -7.56066017177982 7.060660171779823
  endloop
endfacet
facet normal 1.0 -0.0 -0.0
  outer loop
    vertex 9.999999999999996 -7.56066017177982 7.060660171779823
    vertex 10.0 -12.999999999999998 10.000000000000004
    vertex 9.999999999999996 -7.799038105676657 6.750000000000002
  endloop
endfacet
facet normal 1.0 -0.0 -0.0
  outer loop
    vertex 9.999999999999996 -7.799038105676657 6.750000000000002
    vertex 10.0 -12.999999999999998 10.000000000000004
    vertex 9.999999999999996 -7.948888739433602 6.388228567653784
  endloop
endfacet
facet normal 1.0 -0.0 -0.0
  outer loop
    vertex 9.999999999999996 -7.948888739433602 6.388228567653784
    vertex 10.0 -12.999999999999998 10.000000000000004
    vertex 9.999999999999996 -7.999999999999999 6.000000000000002
  endloop
endfacet
facet normal 1.0 -0.0 -0.0
  outer loop
    vertex 10.0 0.0 10.000000000000004
    vertex 9.999999999999996 -6.888228567653779 7.448888739433604
    vertex 9.999999999999996 -6.499999999999999 7.500000000000002
  endloop
endfacet
facet normal 1.0 -0.0 -0.0
  outer loop
    vertex 10.0 0.0 10.000000000000004
    vertex 9.999999999999996 -6.499999999999999 7.500000000000002
    vertex 9.999999999999996 -6.111771432346218 7.448888739433604
  endloop
endfacet
facet normal 1.0 -0.0 -0.0
  outer loop
    vertex 10.0 0.0 10.000000000000004
    vertex 9.999999999999996 -6.111771432346218 7.448888739433604
    vertex 9.999999999999996 -5.749999999999998 7.299038105676659
  endloop
endfacet
facet normal 1.0 -0.0 -0.0
  outer loop
    vertex 10.0 0.0 10.000000000000004
    vertex 9.999999999999996 -5.749999999999998 7.299038105676659
    vertex 9.999999999999996 -5.439339828220177 7.060660171779823
  endloop
endfacet
facet normal 1.0 -0.0 -0.0
  outer loop
    vertex 10.0 0.0 10.000000000000004
    vertex 9.999999999999996 -5.439339828220177 7.060660171779823
    vertex 9.999999999999996 -5.200961894323341 6.750000000000002
  endloop
endfacet
facet normal 1.0 -0.0 -0.0
  outer loop
    vertex 10.0 0.0 10.000000000000004
    vertex 9.999999999999996 -5.200961894323341 6.750000000000002
    vertex 9.999999999999996 -5.051111260566397 6.3882285676537816
  endloop
endfacet
facet normal 1.0 -0.0 -0.0
  outer loop
    vertex 10.0 0.0 10.000000000000004
    vertex 9.999999999999996 -5.051111260566397 6.3882285676537816
    vertex 9.999999999999996 -4.999999999999999 6.000000000000002
  endloop
endfacet
facet normal 1.0 -0.0 -0.0
  outer loop
    vertex 10.0 0.0 10.000000000000004
    vertex 9.999999999999996 -4.999999999999999 6.000000000000002
    vertex 10.0 0.0 0.0
  endloop
endfacet
facet normal 0.0 -1.0 0.0
  outer loop
    vertex 10.0 -12.999999999999998 0.0
    vertex 7.999999999999999 -12.999999999999998 2.0
    vertex 0.0 -12.999999999999998 0.0
  endloop
endfacet
facet normal 0.0 -1.0 0.0
  outer loop
    vertex 7.999999999999999 -12.999999999999998 2.0
    vertex 10.0 -12.999999999999998 0.0
    vertex 10.0 -12.999999999999998 10.000000000000004
  endloop
endfacet
facet normal 0.0 -1.0 0.0
  outer loop
    vertex 7.999999999999999 -12.999999999999998 2.0
    vertex 10.0 -12.999999999999998 10.000000000000004
    vertex 7.999999999999999 -12.999999999999998 10.000000000000004
  endloop
endfacet
facet normal 0.0 -1.0 0.0
  outer loop
    vertex 0.0 -12.999999999999998 2.0
    vertex 0.0 -12.999999999999998 0.0
    vertex 7.999999999999999 -12.999999999999998 2.0
  endloop
endfacet
facet normal 0.0 0.0 1.0
  outer loop
    vertex 10.0 -12.999999999999998 10.000000000000004
    vertex 7.999999999999999 0.0 10.000000000000004
    vertex 7.999999999999999 -12.999999999999998 10.000000000000004
  endloop
endfacet
facet normal 0.0 0.0 1.0
  outer loop
    vertex 7.999999999999999 0.0 10.000000000000004
    vertex 10.0 -12.999999999999998 10.000000000000004
    vertex 10.0 0.0 10.000000000000004
  endloop
endfacet
facet normal -1.0 0.0 0.0
  outer loop
    vertex 7.999999999999999 -12.999999999999998 10.000000000000004
    vertex 7.999999999999999 -7.56066017177982 7.060660171779823
    vertex 7.999999999999999 -12.999999999999998 2.0
  endloop
endfacet
facet normal -1.0 0.0 0.0
  outer loop
    vertex 7.999999999999999 -7.56066017177982 7.060660171779823
    vertex 7.999999999999999 -12.999999999999998 10.000000000000004
    vertex 7.999999999999999 -7.249999999999998 7.299038105676661
  endloop
endfacet
facet normal -1.0 0.0 0.0
  outer loop
    vertex 7.999999999999999 -7.249999999999998 7.299038105676661
    vertex 7.999999999999999 -12.999999999999998 10.000000000000004
    vertex 7.999999999999999 -6.888228567653779 7.448888739433604
  endloop
endfacet
facet normal -1.0 0.0 0.0
  outer loop
    vertex 7.999999999999999 -6.888228567653779 7.448888739433604
    vertex 7.999999999999999 -12.999999999999998 10.000000000000004
    vertex 7.999999999999999 0.0 10.000000000000004
  endloop
endfacet
facet normal -1.0 0.0 0.0
  outer loop
    vertex 7.999999999999999 -12.999999999999998 2.0
    vertex 7.999999999999999 -7.56066017177982 7.060660171779823
    vertex 7.999999999999999 -7.799038105676657 6.750000000000002
  endloop
endfacet
facet normal -1.0 0.0 0.0
  outer loop
    vertex 7.999999999999999 -12.999999999999998 2.0
    vertex 7.999999999999999 -7.799038105676657 6.750000000000002
    vertex 7.999999999999999 -7.948888739433602 6.388228567653784
  endloop
endfacet
facet normal -1.0 0.0 0.0
  outer loop
    vertex 7.999999999999999 -12.999999999999998 2.0
    vertex 7.999999999999999 -7.948888739433602 6.388228567653784
    vertex 7.999999999999999 -7.999999999999999 6.000000000000002
  endloop
endfacet
facet normal -1.0 0.0 0.0
  outer loop
    vertex 7.999999999999999 -6.888228567653779 7.448888739433604
    vertex 7.999999999999999 0.0 10.000000000000004
    vertex 7.999999999999999 -6.499999999999999 7.500000000000002
  endloop
endfacet
facet normal -1.0 0.0 0.0
  outer loop
    vertex 7.999999999999999 -6.499999999999999 7.500000000000002
    vertex 7.999999999999999 0.0 10.000000000000004
    vertex 7.999999999999999 -6.111771432346218 7.448888739433604
  endloop
endfacet
facet normal -1.0 0.0 0.0
  outer loop
    vertex 7.999999999999999 -6.111771432346218 7.448888739433604
    vertex 7.999999999999999 0.0 10.000000000000004
    vertex 7.999999999999999 -5.749999999999998 7.299038105676659
  endloop
endfacet
facet normal -1.0 0.0 0.0
  outer loop
    vertex 7.999999999999999 -5.749999999999998 7.299038105676659
    vertex 7.999999999999999 0.0 10.000000000000004
    vertex 7.999999999999999 -5.439339828220177 7.060660171779823
  endloop
endfacet
facet normal -1.0 0.0 0.0
  outer loop
    vertex 7.999999999999999 -5.439339828220177 7.060660171779823
    vertex 7.999999999999999 0.0 10.000000000000004
    vertex 7.999999999999999 -5.200961894323341 6.750000000000002
  endloop
endfacet
facet normal -1.0 0.0 0.0
  outer loop
    vertex 7.999999999999999 -5.200961894323341 6.750000000000002
    vertex 7.999999999999999 0.0 10.000000000000004
    vertex 7.999999999999999 -5.051111260566397 6.3882285676537816
  endloop
endfacet
facet normal -1.0 0.0 0.0
  outer loop
    vertex 7.999999999999999 -5.051111260566397 6.3882285676537816
    vertex 7.999999999999999 0.0 10.000000000000004
    vertex 7.999999999999999 -4.999999999999999 6.000000000000002
  endloop
endfacet
facet normal -1.0 0.0 0.0
  outer loop
    vertex 7.999999999999999 -12.999999999999998 2.0
    vertex 7.999999999999999 -6.888228567653781 4.551111260566399
    vertex 7.999999999999999 0.0 2.0
  endloop
endfacet
facet normal -1.0 0.0 0.0
  outer loop
    vertex 7.999999999999999 -6.888228567653781 4.551111260566399
    vertex 7.999999999999999 -12.999999999999998 2.0
    vertex 7.999999999999999 -7.249999999999999 4.700961894323344
  endloop
endfacet
facet normal -1.0 0.0 0.0
  outer loop
    vertex 7.999999999999999 -7.249999999999999 4.700961894323344
    vertex 7.999999999999999 -12.999999999999998 2.0
    vertex 7.999999999999999 -7.56066017177982 4.939339828220181
  endloop
endfacet
facet normal -1.0 0.0 0.0
  outer loop
    vertex 7.999999999999999 -7.56066017177982 4.939339828220181
    vertex 7.999999999999999 -12.999999999999998 2.0
    vertex 7.999999999999999 -7.799038105676657 5.250000000000002
  endloop
endfacet
facet normal -1.0 0.0 0.0
  outer loop
    vertex 7.999999999999999 -7.799038105676657 5.250000000000002
    vertex 7.999999999999999 -12.999999999999998 2.0
    vertex 7.999999999999999 -7.948888739433602 5.61177143234622
  endloop
endfacet
facet normal -1.0 0.0 0.0
  outer loop
    vertex 7.999999999999999 -7.948888739433602 5.61177143234622
    vertex 7.999999999999999 -12.999999999999998 2.0
    vertex 7.999999999999999 -7.999999999999999 6.000000000000002
  endloop
endfacet
facet normal -1.0 0.0 0.0
  outer loop
    vertex 7.999999999999999 0.0 2.0
    vertex 7.999999999999999 -6.888228567653781 4.551111260566399
    vertex 7.999999999999999 -6.499999999999999 4.500000000000002
  endloop
endfacet
facet normal -1.0 0.0 0.0
  outer loop
    vertex 7.999999999999999 0.0 2.0
    vertex 7.999999999999999 -6.499999999999999 4.500000000000002
    vertex 7.999999999999999 -6.1117714323462184 4.551111260566399
  endloop
endfacet
facet normal -1.0 0.0 0.0
  outer loop
    vertex 7.999999999999999 0.0 2.0
    vertex 7.999999999999999 -6.1117714323462184 4.551111260566399
    vertex 7.999999999999999 -5.75 4.700961894323344
  endloop
endfacet
facet normal -1.0 0.0 0.0
  outer loop
    vertex 7.999999999999999 0.0 2.0
    vertex 7.999999999999999 -5.75 4.700961894323344
    vertex 7.999999999999999 -5.439339828220178 4.939339828220181
  endloop
endfacet
facet normal -1.0 0.0 0.0
  outer loop
    vertex 7.999999999999999 0.0 2.0
    vertex 7.999999999999999 -5.439339828220178 4.939339828220181
    vertex 7.999999999999999 -5.200961894323342 5.250000000000001
  endloop
endfacet
facet normal -1.0 0.0 0.0
  outer loop
    vertex 7.999999999999999 0.0 2.0
    vertex 7.999999999999999 -5.200961894323342 5.250000000000001
    vertex 7.999999999999999 -5.051111260566397 5.61177143234622
  endloop
endfacet
facet normal -1.0 0.0 0.0
  outer loop
    vertex 7.999999999999999 0.0 2.0
    vertex 7.999999999999999 -5.051111260566397 5.61177143234622
    vertex 7.999999999999999 -4.999999999999999 6.000000000000002
  endloop
endfacet
facet normal -1.0 0.0 0.0
  outer loop
    vertex 7.999999999999999 0.0 2.0
    vertex 7.999999999999999 -4.999999999999999 6.000000000000002
    vertex 7.999999999999999 0.0 10.000000000000004
  endloop
endfacet
facet normal -0.9914448613738104 0.13052619222005216 -0.0
  outer loop
    vertex 5.5 -6.499999999999999 2.0
    vertex 5.4488887394336025 -6.888228567653779 7.049916206369744e-16
    vertex 5.4488887394336025 -6.888228567653779 2.0
  endloop
endfacet
facet normal -0.9914448613738104 0.13052619222005216 -0.0
  outer loop
    vertex 5.4488887394336025 -6.888228567653779 7.049916206369744e-16
    vertex 5.5 -6.499999999999999 2.0
    vertex 5.5 -6.499999999999999 7.049916206369744e-16
  endloop
endfacet
facet normal -0.9914448613738105 -0.13052619222005146 -0.0
  outer loop
    vertex 5.4488887394336025 -6.111771432346218 2.0
    vertex 5.5 -6.499999999999999 7.049916206369744e-16
    vertex 5.5 -6.499999999999999 2.0
  endloop
endfacet
facet normal -0.9914448613738105 -0.13052619222005146 -0.0
  outer loop
    vertex 5.5 -6.499999999999999 7.049916206369744e-16
    vertex 5.4488887394336025 -6.111771432346218 2.0
    vertex 5.4488887394336025 -6.111771432346218 7.049916206369744e-16
  endloop
endfacet
facet normal -0.9238795325112862 -0.38268343236509134 -0.0
  outer loop
    vertex 5.299038105676657 -5.749999999999998 2.0
    vertex 5.4488887394336025 -6.111771432346218 7.049916206369744e-16
    vertex 5.4488887394336025 -6.111771432346218 2.0
  endloop
endfacet
facet normal -0.9238795325112862 -0.38268343236509134 -0.0
  outer loop
    vertex 5.4488887394336025 -6.111771432346218 7.049916206369744e-16
    vertex 5.299038105676657 -5.749999999999998 2.0
    vertex 5.299038105676657 -5.749999999999998 7.049916206369744e-16
  endloop
endfacet
facet normal -0.7933533402912355 -0.6087614290087202 -0.0
  outer loop
    vertex 5.060660171779821 -5.439339828220177 2.0
    vertex 5.299038105676657 -5.749999999999998 7.049916206369744e-16
    vertex 5.299038105676657 -5.749999999999998 2.0
  endloop
endfacet
facet normal -0.7933533402912355 -0.6087614290087202 -0.0
  outer loop
    vertex 5.299038105676657 -5.749999999999998 7.049916206369744e-16
    vertex 5.060660171779821 -5.439339828220177 2.0
    vertex 5.060660171779821 -5.439339828220177 7.049916206369744e-16
  endloop
endfacet
facet normal -0.6087614290087202 -0.7933533402912355 -0.0
  outer loop
    vertex 5.060660171779821 -5.439339828220177 2.0
    vertex 4.75 -5.200961894323341 7.049916206369744e-16
    vertex 5.060660171779821 -5.439339828220177 7.049916206369744e-16
  endloop
endfacet
facet normal -0.6087614290087202 -0.7933533402912355 -0.0
  outer loop
    vertex 4.75 -5.200961894323341 7.049916206369744e-16
    vertex 5.060660171779821 -5.439339828220177 2.0
    vertex 4.75 -5.200961894323341 2.0
  endloop
endfacet
facet normal -0.38268343236508917 -0.9238795325112872 -0.0
  outer loop
    vertex 4.75 -5.200961894323341 2.0
    vertex 4.388228567653781 -5.051111260566397 7.049916206369744e-16
    vertex 4.75 -5.200961894323341 7.049916206369744e-16
  endloop
endfacet
facet normal -0.38268343236508917 -0.9238795325112872 -0.0
  outer loop
    vertex 4.388228567653781 -5.051111260566397 7.049916206369744e-16
    vertex 4.75 -5.200961894323341 2.0
    vertex 4.388228567653781 -5.051111260566397 2.0
  endloop
endfacet
facet normal -0.1305261922200519 -0.9914448613738104 -0.0
  outer loop
    vertex 4.388228567653781 -5.051111260566397 2.0
    vertex 3.9999999999999996 -4.999999999999999 7.049916206369744e-16
    vertex 4.388228567653781 -5.051111260566397 7.049916206369744e-16
  endloop
endfacet
facet normal -0.1305261922200519 -0.9914448613738104 -0.0
  outer loop
    vertex 3.9999999999999996 -4.999999999999999 7.049916206369744e-16
    vertex 4.388228567653781 -5.051111260566397 2.0
    vertex 3.9999999999999996 -4.999999999999999 2.0
  endloop
endfacet
facet normal 0.13052619222005168 -0.9914448613738105 -0.0
  outer loop
    vertex 3.9999999999999996 -4.999999999999999 2.0
    vertex 3.6117714323462184 -5.051111260566397 7.049916206369744e-16
    vertex 3.9999999999999996 -4.999999999999999 7.049916206369744e-16
  endloop
endfacet
facet normal 0.13052619222005168 -0.9914448613738105 -0.0
  outer loop
    vertex 3.6117714323462184 -5.051111260566397 7.049916206369744e-16
    vertex 3.9999999999999996 -4.999999999999999 2.0
    vertex 3.6117714323462184 -5.051111260566397 2.0
  endloop
endfacet
facet normal 0.38268343236508917 -0.9238795325112872 -0.0
  outer loop
    vertex 3.6117714323462184 -5.051111260566397 2.0
    vertex 3.249999999999999 -5.200961894323341 7.049916206369744e-16
    vertex 3.6117714323462184 -5.051111260566397 7.049916206369744e-16
  endloop
endfacet
facet normal 0.38268343236508917 -0.9238795325112872 -0.0
  outer loop
    vertex 3.249999999999999 -5.200961894323341 7.049916206369744e-16
    vertex 3.6117714323462184 -5.051111260566397 2.0
    vertex 3.249999999999999 -5.200961894323341 2.0
  endloop
endfacet
facet normal 0.6087614290087218 -0.7933533402912345 -0.0
  outer loop
    vertex 3.249999999999999 -5.200961894323341 2.0
    vertex 2.939339828220178 -5.439339828220178 7.049916206369744e-16
    vertex 3.249999999999999 -5.200961894323341 7.049916206369744e-16
  endloop
endfacet
facet normal 0.6087614290087218 -0.7933533402912345 -0.0
  outer loop
    vertex 2.939339828220178 -5.439339828220178 7.049916206369744e-16
    vertex 3.249999999999999 -5.200961894323341 2.0
    vertex 2.939339828220178 -5.439339828220178 2.0
  endloop
endfacet
facet normal 0.7933533402912352 -0.6087614290087208 -0.0
  outer loop
    vertex 2.939339828220178 -5.439339828220178 7.049916206369744e-16
    vertex 2.7009618943233416 -5.749999999999999 2.0
    vertex 2.7009618943233416 -5.749999999999999 7.049916206369744e-16
  endloop
endfacet
facet normal 0.7933533402912352 -0.6087614290087208 -0.0
  outer loop
    vertex 2.7009618943233416 -5.749999999999999 2.0
    vertex 2.939339828220178 -5.439339828220178 7.049916206369744e-16
    vertex 2.939339828220178 -5.439339828220178 2.0
  endloop
endfacet
facet normal 0.9238795325112867 -0.3826834323650898 -0.0
  outer loop
    vertex 2.7009618943233416 -5.749999999999999 7.049916206369744e-16
    vertex 2.5511112605663975 -6.1117714323462184 2.0
    vertex 2.5511112605663975 -6.1117714323462184 7.049916206369744e-16
  endloop
endfacet
facet normal 0.9238795325112867 -0.3826834323650898 -0.0
  outer loop
    vertex 2.5511112605663975 -6.1117714323462184 2.0
    vertex 2.7009618943233416 -5.749999999999999 7.049916206369744e-16
    vertex 2.7009618943233416 -5.749999999999999 2.0
  endloop
endfacet
facet normal 0.9914448613738105 -0.13052619222005168 -0.0
  outer loop
    vertex 2.5511112605663975 -6.1117714323462184 7.049916206369744e-16
    vertex 2.4999999999999996 -6.499999999999999 2.0
    vertex 2.4999999999999996 -6.499999999999999 7.049916206369744e-16
  endloop
endfacet
facet normal 0.9914448613738105 -0.13052619222005168 -0.0
  outer loop
    vertex 2.4999999999999996 -6.499999999999999 2.0
    vertex 2.5511112605663975 -6.1117714323462184 7.049916206369744e-16
    vertex 2.5511112605663975 -6.1117714323462184 2.0
  endloop
endfacet
facet normal 0.9914448613738105 0.13052619222005168 0.0
  outer loop
    vertex 2.4999999999999996 -6.499999999999999 7.049916206369744e-16
    vertex 2.5511112605663975 -6.888228567653781 2.0
    vertex 2.5511112605663975 -6.888228567653781 7.049916206369744e-16
  endloop
endfacet
facet normal 0.9914448613738105 0.13052619222005168 0.0
  outer loop
    vertex 2.5511112605663975 -6.888228567653781 2.0
    vertex 2.4999999999999996 -6.499999999999999 7.049916206369744e-16
    vertex 2.4999999999999996 -6.499999999999999 2.0
  endloop
endfacet
facet normal 0.9238795325112867 0.3826834323650898 0.0
  outer loop
    vertex 2.5511112605663975 -6.888228567653781 7.049916206369744e-16
    vertex 2.7009618943233416 -7.249999999999999 2.0
    vertex 2.7009618943233416 -7.249999999999999 7.049916206369744e-16
  endloop
endfacet
facet normal 0.9238795325112867 0.3826834323650898 0.0
  outer loop
    vertex 2.7009618943233416 -7.249999999999999 2.0
    vertex 2.5511112605663975 -6.888228567653781 7.049916206369744e-16
    vertex 2.5511112605663975 -6.888228567653781 2.0
  endloop
endfacet
facet normal 0.7933533402912346 0.6087614290087213 0.0
  outer loop
    vertex 2.7009618943233416 -7.249999999999999 7.049916206369744e-16
    vertex 2.9393398282201786 -7.56066017177982 2.0
    vertex 2.9393398282201786 -7.56066017177982 7.049916206369744e-16
  endloop
endfacet
facet normal 0.7933533402912346 0.6087614290087213 0.0
  outer loop
    vertex 2.9393398282201786 -7.56066017177982 2.0
    vertex 2.7009618943233416 -7.249999999999999 7.049916206369744e-16
    vertex 2.7009618943233416 -7.249999999999999 2.0
  endloop
endfacet
facet normal 0.6087614290087225 0.7933533402912339 0.0
  outer loop
    vertex 2.9393398282201786 -7.56066017177982 2.0
    vertex 3.2499999999999996 -7.799038105676658 7.049916206369744e-16
    vertex 2.9393398282201786 -7.56066017177982 7.049916206369744e-16
  endloop
endfacet
facet normal 0.6087614290087225 0.7933533402912339 0.0
  outer loop
    vertex 3.2499999999999996 -7.799038105676658 7.049916206369744e-16
    vertex 2.9393398282201786 -7.56066017177982 2.0
    vertex 3.2499999999999996 -7.799038105676658 2.0
  endloop
endfacet
facet normal 0.3826834323650882 0.9238795325112874 0.0
  outer loop
    vertex 3.2499999999999996 -7.799038105676658 2.0
    vertex 3.6117714323462184 -7.948888739433602 7.049916206369744e-16
    vertex 3.2499999999999996 -7.799038105676658 7.049916206369744e-16
  endloop
endfacet
facet normal 0.3826834323650882 0.9238795325112874 0.0
  outer loop
    vertex 3.6117714323462184 -7.948888739433602 7.049916206369744e-16
    vertex 3.2499999999999996 -7.799038105676658 2.0
    vertex 3.6117714323462184 -7.948888739433602 2.0
  endloop
endfacet
facet normal 0.13052619222005168 0.9914448613738105 0.0
  outer loop
    vertex 3.6117714323462184 -7.948888739433602 2.0
    vertex 3.9999999999999996 -7.999999999999999 7.049916206369744e-16
    vertex 3.6117714323462184 -7.948888739433602 7.049916206369744e-16
  endloop
endfacet
facet normal 0.13052619222005168 0.9914448613738105 0.0
  outer loop
    vertex 3.9999999999999996 -7.999999999999999 7.049916206369744e-16
    vertex 3.6117714323462184 -7.948888739433602 2.0
    vertex 3.9999999999999996 -7.999999999999999 2.0
  endloop
endfacet
facet normal -0.13052619222005146 0.9914448613738105 -0.0
  outer loop
    vertex 3.9999999999999996 -7.999999999999999 2.0
    vertex 4.3882285676537816 -7.948888739433602 7.049916206369744e-16
    vertex 3.9999999999999996 -7.999999999999999 7.049916206369744e-16
  endloop
endfacet
facet normal -0.13052619222005146 0.9914448613738105 -0.0
  outer loop
    vertex 4.3882285676537816 -7.948888739433602 7.049916206369744e-16
    vertex 3.9999999999999996 -7.999999999999999 2.0
    vertex 4.3882285676537816 -7.948888739433602 2.0
  endloop
endfacet
facet normal -0.38268343236509134 0.9238795325112862 -0.0
  outer loop
    vertex 4.3882285676537816 -7.948888739433602 2.0
    vertex 4.750000000000001 -7.799038105676657 7.049916206369744e-16
    vertex 4.3882285676537816 -7.948888739433602 7.049916206369744e-16
  endloop
endfacet
facet normal -0.38268343236509134 0.9238795325112862 -0.0
  outer loop
    vertex 4.750000000000001 -7.799038105676657 7.049916206369744e-16
    vertex 4.3882285676537816 -7.948888739433602 2.0
    vertex 4.750000000000001 -7.799038105676657 2.0
  endloop
endfacet
facet normal -0.6087614290087202 0.7933533402912355 -0.0
  outer loop
    vertex 4.750000000000001 -7.799038105676657 2.0
    vertex 5.060660171779822 -7.56066017177982 7.049916206369744e-16
    vertex 4.750000000000001 -7.799038105676657 7.049916206369744e-16
  endloop
endfacet
facet normal -0.6087614290087202 0.7933533402912355 -0.0
  outer loop
    vertex 5.060660171779822 -7.56066017177982 7.049916206369744e-16
    vertex 4.750000000000001 -7.799038105676657 2.0
    vertex 5.060660171779822 -7.56066017177982 2.0
  endloop
endfacet
facet normal -0.7933533402912362 0.6087614290087197 -0.0
  outer loop
    vertex 5.299038105676659 -7.249999999999998 2.0
    vertex 5.060660171779822 -7.56066017177982 7.049916206369744e-16
    vertex 5.060660171779822 -7.56066017177982 2.0
  endloop
endfacet
facet normal -0.7933533402912362 0.6087614290087197 -0.0
  outer loop
    vertex 5.060660171779822 -7.56066017177982 7.049916206369744e-16
    vertex 5.299038105676659 -7.249999999999998 2.0
    vertex 5.299038105676659 -7.249999999999998 7.049916206369744e-16
  endloop
endfacet
facet normal -0.9238795325112874 0.3826834323650882 -0.0
  outer loop
    vertex 5.4488887394336025 -6.888228567653779 2.0
    vertex 5.299038105676659 -7.249999999999998 7.049916206369744e-16
    vertex 5.299038105676659 -7.249999999999998 2.0
  endloop
endfacet
facet normal -0.9238795325112874 0.3826834323650882 -0.0
  outer loop
    vertex 5.299038105676659 -7.249999999999998 7.049916206369744e-16
    vertex 5.4488887394336025 -6.888228567653779 2.0
    vertex 5.4488887394336025 -6.888228567653779 7.049916206369744e-16
  endloop
endfacet
facet normal 0.0 0.9914448613738105 0.13052619222005168
  outer loop
    vertex 7.999999999999999 -7.999999999999999 6.000000000000002
    vertex 9.999999999999996 -7.948888739433602 5.61177143234622
    vertex 7.999999999999999 -7.948888739433602 5.61177143234622
  endloop
endfacet
facet normal 0.0 0.9914448613738105 0.13052619222005168
  outer loop
    vertex 9.999999999999996 -7.948888739433602 5.61177143234622
    vertex 7.999999999999999 -7.999999999999999 6.000000000000002
    vertex 9.999999999999996 -7.999999999999999 6.000000000000002
  endloop
endfacet
facet normal -0.0 0.9914448613738106 -0.13052619222005124
  outer loop
    vertex 7.999999999999999 -7.948888739433602 6.388228567653784
    vertex 9.999999999999996 -7.999999999999999 6.000000000000002
    vertex 7.999999999999999 -7.999999999999999 6.000000000000002
  endloop
endfacet
facet normal -0.0 0.9914448613738106 -0.13052619222005124
  outer loop
    vertex 9.999999999999996 -7.999999999999999 6.000000000000002
    vertex 7.999999999999999 -7.948888739433602 6.388228567653784
    vertex 9.999999999999996 -7.948888739433602 6.388228567653784
  endloop
endfacet
facet normal -0.0 0.9238795325112856 -0.38268343236509256
  outer loop
    vertex 7.999999999999999 -7.799038105676657 6.750000000000002
    vertex 9.999999999999996 -7.948888739433602 6.388228567653784
    vertex 7.999999999999999 -7.948888739433602 6.388228567653784
  endloop
endfacet
facet normal -0.0 0.9238795325112856 -0.38268343236509256
  outer loop
    vertex 9.999999999999996 -7.948888739433602 6.388228567653784
    vertex 7.999999999999999 -7.799038105676657 6.750000000000002
    vertex 9.999999999999996 -7.799038105676657 6.750000000000002
  endloop
endfacet
facet normal -0.0 0.7933533402912355 -0.6087614290087202
  outer loop
    vertex 7.999999999999999 -7.56066017177982 7.060660171779823
    vertex 9.999999999999996 -7.799038105676657 6.750000000000002
    vertex 7.999999999999999 -7.799038105676657 6.750000000000002
  endloop
endfacet
facet normal -0.0 0.7933533402912355 -0.6087614290087202
  outer loop
    vertex 9.999999999999996 -7.799038105676657 6.750000000000002
    vertex 7.999999999999999 -7.56066017177982 7.060660171779823
    vertex 9.999999999999996 -7.56066017177982 7.060660171779823
  endloop
endfacet
facet normal -0.0 0.6087614290087208 -0.7933533402912353
  outer loop
    vertex 9.999999999999996 -7.249999999999998 7.299038105676661
    vertex 7.999999999999999 -7.56066017177982 7.060660171779823
    vertex 7.999999999999999 -7.249999999999998 7.299038105676661
  endloop
endfacet
facet normal -0.0 0.6087614290087208 -0.7933533402912353
  outer loop
    vertex 7.999999999999999 -7.56066017177982 7.060660171779823
    vertex 9.999999999999996 -7.249999999999998 7.299038105676661
    vertex 9.999999999999996 -7.56066017177982 7.060660171779823
  endloop
endfacet
facet normal -0.0 0.3826834323650882 -0.9238795325112874
  outer loop
    vertex 9.999999999999996 -6.888228567653779 7.448888739433604
    vertex 7.999999999999999 -7.249999999999998 7.299038105676661
    vertex 7.999999999999999 -6.888228567653779 7.448888739433604
  endloop
endfacet
facet normal -0.0 0.3826834323650882 -0.9238795325112874
  outer loop
    vertex 7.999999999999999 -7.249999999999998 7.299038105676661
    vertex 9.999999999999996 -6.888228567653779 7.448888739433604
    vertex 9.999999999999996 -7.249999999999998 7.299038105676661
  endloop
endfacet
facet normal -0.0 0.13052619222005216 -0.9914448613738104
  outer loop
    vertex 9.999999999999996 -6.499999999999999 7.500000000000002
    vertex 7.999999999999999 -6.888228567653779 7.448888739433604
    vertex 7.999999999999999 -6.499999999999999 7.500000000000002
  endloop
endfacet
facet normal -0.0 0.13052619222005216 -0.9914448613738104
  outer loop
    vertex 7.999999999999999 -6.888228567653779 7.448888739433604
    vertex 9.999999999999996 -6.499999999999999 7.500000000000002
    vertex 9.999999999999996 -6.888228567653779 7.448888739433604
  endloop
endfacet
facet normal -0.0 -0.13052619222005146 -0.9914448613738105
  outer loop
    vertex 9.999999999999996 -6.111771432346218 7.448888739433604
    vertex 7.999999999999999 -6.499999999999999 7.500000000000002
    vertex 7.999999999999999 -6.111771432346218 7.448888739433604
  endloop
endfacet
facet normal -0.0 -0.13052619222005146 -0.9914448613738105
  outer loop
    vertex 7.999999999999999 -6.499999999999999 7.500000000000002
    vertex 9.999999999999996 -6.111771432346218 7.448888739433604
    vertex 9.999999999999996 -6.499999999999999 7.500000000000002
  endloop
endfacet
facet normal -0.0 -0.38268343236509134 -0.9238795325112862
  outer loop
    vertex 9.999999999999996 -5.749999999999998 7.299038105676659
    vertex 7.999999999999999 -6.111771432346218 7.448888739433604
    vertex 7.999999999999999 -5.749999999999998 7.299038105676659
  endloop
endfacet
facet normal -0.0 -0.38268343236509134 -0.9238795325112862
  outer loop
    vertex 7.999999999999999 -6.111771432346218 7.448888739433604
    vertex 9.999999999999996 -5.749999999999998 7.299038105676659
    vertex 9.999999999999996 -6.111771432346218 7.448888739433604
  endloop
endfacet
facet normal -0.0 -0.6087614290087202 -0.7933533402912355
  outer loop
    vertex 9.999999999999996 -5.439339828220177 7.060660171779823
    vertex 7.999999999999999 -5.749999999999998 7.299038105676659
    vertex 7.999999999999999 -5.439339828220177 7.060660171779823
  endloop
endfacet
facet normal -0.0 -0.6087614290087202 -0.7933533402912355
  outer loop
    vertex 7.999999999999999 -5.749999999999998 7.299038105676659
    vertex 9.999999999999996 -5.439339828220177 7.060660171779823
    vertex 9.999999999999996 -5.749999999999998 7.299038105676659
  endloop
endfacet
facet normal -0.0 -0.7933533402912355 -0.6087614290087202
  outer loop
    vertex 9.999999999999996 -5.439339828220177 7.060660171779823
    vertex 7.999999999999999 -5.200961894323341 6.750000000000002
    vertex 9.999999999999996 -5.200961894323341 6.750000000000002
  endloop
endfacet
facet normal -0.0 -0.7933533402912355 -0.6087614290087202
  outer loop
    vertex 7.999999999999999 -5.200961894323341 6.750000000000002
    vertex 9.999999999999996 -5.439339828220177 7.060660171779823
    vertex 7.999999999999999 -5.439339828220177 7.060660171779823
  endloop
endfacet
facet normal -0.0 -0.9238795325112873 -0.3826834323650885
  outer loop
    vertex 9.999999999999996 -5.200961894323341 6.750000000000002
    vertex 7.999999999999999 -5.051111260566397 6.3882285676537816
    vertex 9.999999999999996 -5.051111260566397 6.3882285676537816
  endloop
endfacet
facet normal -0.0 -0.9238795325112873 -0.3826834323650885
  outer loop
    vertex 7.999999999999999 -5.051111260566397 6.3882285676537816
    vertex 9.999999999999996 -5.200961894323341 6.750000000000002
    vertex 7.999999999999999 -5.200961894323341 6.750000000000002
  endloop
endfacet
facet normal -0.0 -0.9914448613738104 -0.13052619222005216
  outer loop
    vertex 9.999999999999996 -5.051111260566397 6.3882285676537816
    vertex 7.999999999999999 -4.999999999999999 6.000000000000002
    vertex 9.999999999999996 -4.999999999999999 6.000000000000002
  endloop
endfacet
facet normal -0.0 -0.9914448613738104 -0.13052619222005216
  outer loop
    vertex 7.999999999999999 -4.999999999999999 6.000000000000002
    vertex 9.999999999999996 -5.051111260566397 6.3882285676537816
    vertex 7.999999999999999 -5.051111260566397 6.3882285676537816
  endloop
endfacet
facet normal -0.0 -0.9914448613738105 0.13052619222005168
  outer loop
    vertex 9.999999999999996 -4.999999999999999 6.000000000000002
    vertex 7.999999999999999 -5.051111260566397 5.61177143234622
    vertex 9.999999999999996 -5.051111260566397 5.61177143234622
  endloop
endfacet
facet normal -0.0 -0.9914448613738105 0.13052619222005168
  outer loop
    vertex 7.999999999999999 -5.051111260566397 5.61177143234622
    vertex 9.999999999999996 -4.999999999999999 6.000000000000002
    vertex 7.999999999999999 -4.999999999999999 6.000000000000002
  endloop
endfacet
facet normal -0.0 -0.9238795325112865 0.3826834323650908
  outer loop
    vertex 9.999999999999996 -5.051111260566397 5.61177143234622
    vertex 7.999999999999999 -5.200961894323342 5.250000000000001
    vertex 9.999999999999996 -5.200961894323342 5.250000000000001
  endloop
endfacet
facet normal -0.0 -0.9238795325112865 0.3826834323650908
  outer loop
    vertex 7.999999999999999 -5.200961894323342 5.250000000000001
    vertex 9.999999999999996 -5.051111260566397 5.61177143234622
    vertex 7.999999999999999 -5.051111260566397 5.61177143234622
  endloop
endfacet
facet normal -0.0 -0.7933533402912349 0.6087614290087211
  outer loop
    vertex 9.999999999999996 -5.200961894323342 5.250000000000001
    vertex 7.999999999999999 -5.439339828220178 4.939339828220181
    vertex 9.999999999999996 -5.439339828220178 4.939339828220181
  endloop
endfacet
facet normal -0.0 -0.7933533402912349 0.6087614290087211
  outer loop
    vertex 7.999999999999999 -5.439339828220178 4.939339828220181
    vertex 9.999999999999996 -5.200961894323342 5.250000000000001
    vertex 7.999999999999999 -5.200961894323342 5.250000000000001
  endloop
endfacet
facet normal -0.0 -0.6087614290087205 0.7933533402912354
  outer loop
    vertex 9.999999999999996 -5.75 4.700961894323344
    vertex 7.999999999999999 -5.439339828220178 4.939339828220181
    vertex 7.999999999999999 -5.75 4.700961894323344
  endloop
endfacet
facet normal -0.0 -0.6087614290087205 0.7933533402912354
  outer loop
    vertex 7.999999999999999 -5.439339828220178 4.939339828220181
    vertex 9.999999999999996 -5.75 4.700961894323344
    vertex 9.999999999999996 -5.439339828220178 4.939339828220181
  endloop
endfacet
facet normal -0.0 -0.3826834323650898 0.9238795325112867
  outer loop
    vertex 9.999999999999996 -6.1117714323462184 4.551111260566399
    vertex 7.999999999999999 -5.75 4.700961894323344
    vertex 7.999999999999999 -6.1117714323462184 4.551111260566399
  endloop
endfacet
facet normal -0.0 -0.3826834323650898 0.9238795325112867
  outer loop
    vertex 7.999999999999999 -5.75 4.700961894323344
    vertex 9.999999999999996 -6.1117714323462184 4.551111260566399
    vertex 9.999999999999996 -5.75 4.700961894323344
  endloop
endfacet
facet normal -0.0 -0.1305261922200519 0.9914448613738104
  outer loop
    vertex 9.999999999999996 -6.499999999999999 4.500000000000002
    vertex 7.999999999999999 -6.1117714323462184 4.551111260566399
    vertex 7.999999999999999 -6.499999999999999 4.500000000000002
  endloop
endfacet
facet normal -0.0 -0.1305261922200519 0.9914448613738104
  outer loop
    vertex 7.999999999999999 -6.1117714323462184 4.551111260566399
    vertex 9.999999999999996 -6.499999999999999 4.500000000000002
    vertex 9.999999999999996 -6.1117714323462184 4.551111260566399
  endloop
endfacet
facet normal 0.0 0.13052619222005168 0.9914448613738105
  outer loop
    vertex 9.999999999999996 -6.888228567653781 4.551111260566399
    vertex 7.999999999999999 -6.499999999999999 4.500000000000002
    vertex 7.999999999999999 -6.888228567653781 4.551111260566399
  endloop
endfacet
facet normal 0.0 0.13052619222005168 0.9914448613738105
  outer loop
    vertex 7.999999999999999 -6.499999999999999 4.500000000000002
    vertex 9.999999999999996 -6.888228567653781 4.551111260566399
    vertex 9.999999999999996 -6.499999999999999 4.500000000000002
  endloop
endfacet
facet normal 0.0 0.3826834323650898 0.9238795325112867
  outer loop
    vertex 9.999999999999996 -7.249999999999999 4.700961894323344
    vertex 7.999999999999999 -6.888228567653781 4.551111260566399
    vertex 7.999999999999999 -7.249999999999999 4.700961894323344
  endloop
endfacet
facet normal 0.0 0.3826834323650898 0.9238795325112867
  outer loop
    vertex 7.999999999999999 -6.888228567653781 4.551111260566399
    vertex 9.999999999999996 -7.249999999999999 4.700961894323344
    vertex 9.999999999999996 -6.888228567653781 4.551111260566399
  endloop
endfacet
facet normal 0.0 0.6087614290087213 0.7933533402912346
  outer loop
    vertex 9.999999999999996 -7.56066017177982 4.939339828220181
    vertex 7.999999999999999 -7.249999999999999 4.700961894323344
    vertex 7.999999999999999 -7.56066017177982 4.939339828220181
  endloop
endfacet
facet normal 0.0 0.6087614290087213 0.7933533402912346
  outer loop
    vertex 7.999999999999999 -7.249999999999999 4.700961894323344
    vertex 9.999999999999996 -7.56066017177982 4.939339828220181
    vertex 9.999999999999996 -7.249999999999999 4.700961894323344
  endloop
endfacet
facet normal 0.0 0.7933533402912355 0.6087614290087202
  outer loop
    vertex 7.999999999999999 -7.799038105676657 5.250000000000002
    vertex 9.999999999999996 -7.56066017177982 4.939339828220181
    vertex 7.999999999999999 -7.56066017177982 4.939339828220181
  endloop
endfacet
facet normal 0.0 0.7933533402912355 0.6087614290087202
  outer loop
    vertex 9.999999999999996 -7.56066017177982 4.939339828220181
    vertex 7.999999999999999 -7.799038105676657 5.250000000000002
    vertex 9.999999999999996 -7.799038105676657 5.250000000000002
  endloop
endfacet
facet normal 0.0 0.9238795325112862 0.38268343236509134
  outer loop
    vertex 7.999999999999999 -7.948888739433602 5.61177143234622
    vertex 9.999999999999996 -7.799038105676657 5.250000000000002
    vertex 7.999999999999999 -7.799038105676657 5.250000000000002
  endloop
endfacet
facet normal 0.0 0.9238795325112862 0.38268343236509134
  outer loop
    vertex 9.999999999999996 -7.799038105676657 5.250000000000002
    vertex 7.999999999999999 -7.948888739433602 5.61177143234622
    vertex 9.999999999999996 -7.948888739433602 5.61177143234622
  endloop
endfacet
endsolid Bracket_T6
