solid MotorBracket
facet normal 0.0 0.0 -1.0
  outer loop
    vertex 50.78170397209951 -48.508740800552154 14.597719000000001
    vertex 79.36834049276816 -58.71244337294697 14.597718935258687
    vertex 50.78170392037339 -58.71244337294697 14.597718935258687
  endloop
endfacet
facet normal 0.0 0.0 -1.0
  outer loop
    vertex 79.36834049276816 -58.71244337294697 14.597718935258687
    vertex 50.78170397209951 -48.508740800552154 14.597719000000001
    vertex 79.36834054449433 -48.508740800552154 14.597719000000001
  endloop
endfacet
facet normal 1.0 -9.854183073961051e-33 9.096666072735151e-16
  outer loop
    vertex 76.37248875829691 -48.508740800552154 0.0
    vertex 76.37248870657072 -58.71244337294697 11.536763935258687
    vertex 76.37248870657073 -58.71244337294697 -6.474131538755138e-08
  endloop
endfacet
facet normal 1.0 -9.854183073961051e-33 9.096666072735151e-16
  outer loop
    vertex 76.37248870657072 -58.71244337294697 11.536763935258687
    vertex 76.37248875829691 -48.508740800552154 0.0
    vertex 76.3724887582969 -48.508740800552154 11.536764
  endloop
endfacet
facet normal -1.0 0.0 0.0
  outer loop
    vertex 53.772488758296895 -48.508740800552154 11.536764
    vertex 53.772488706570726 -58.71244337294697 -6.474131538755138e-08
    vertex 53.772488706570726 -58.71244337294697 11.536763935258687
  endloop
endfacet
facet normal -1.0 0.0 0.0
  outer loop
    vertex 53.772488706570726 -58.71244337294697 -6.474131538755138e-08
    vertex 53.772488758296895 -48.508740800552154 11.536764
    vertex 53.772488758296895 -48.508740800552154 0.0
  endloop
endfacet
facet normal -3.038977054258674e-09 1.0 -3.8036366579433555e-09
  outer loop
    vertex 40.78170392037339 -58.71244380055216 2.9999999352586837
    vertex 53.772488706570726 -58.71244337294697 -6.474131538755138e-08
    vertex 40.78170392037339 -58.71244337294697 -6.474131538755138e-08
  endloop
endfacet
facet normal -3.038977054258674e-09 1.0 -3.8036366579433555e-09
  outer loop
    vertex 53.772488706570726 -58.71244337294697 -6.474131538755138e-08
    vertex 40.78170392037339 -58.71244380055216 2.9999999352586837
    vertex 50.78170392037339 -58.71244380055216 2.9999999352586837
  endloop
endfacet
facet normal -3.038977054258674e-09 1.0 -3.8036366579433555e-09
  outer loop
    vertex 53.772488706570726 -58.71244337294697 -6.474131538755138e-08
    vertex 50.78170392037339 -58.71244380055216 2.9999999352586837
    vertex 53.772488706570726 -58.71244337294697 11.536763935258687
  endloop
endfacet
facet normal -3.038977054258674e-09 1.0 -3.8036366579433555e-09
  outer loop
    vertex 53.772488706570726 -58.71244337294697 11.536763935258687
    vertex 50.78170392037339 -58.71244380055216 2.9999999352586837
    vertex 50.78170392037339 -58.71244337294697 14.597718935258687
  endloop
endfacet
facet normal -3.038977054258674e-09 1.0 -3.8036366579433555e-09
  outer loop
    vertex 53.772488706570726 -58.71244337294697 11.536763935258687
    vertex 50.78170392037339 -58.71244337294697 14.597718935258687
    vertex 76.37248870657072 -58.71244337294697 11.536763935258687
  endloop
endfacet
facet normal -3.038977054258674e-09 1.0 -3.8036366579433555e-09
  outer loop
    vertex 76.37248870657073 -58.71244337294697 -6.474131538755138e-08
    vertex 79.36834049276816 -58.71244337294697 2.9999999352586837
    vertex 89.37087549276818 -58.71244337294697 -6.474131538755138e-08
  endloop
endfacet
facet normal -3.038977054258674e-09 1.0 -3.8036366579433555e-09
  outer loop
    vertex 79.36834049276816 -58.71244337294697 2.9999999352586837
    vertex 76.37248870657073 -58.71244337294697 -6.474131538755138e-08
    vertex 76.37248870657072 -58.71244337294697 11.536763935258687
  endloop
endfacet
facet normal -3.038977054258674e-09 1.0 -3.8036366579433555e-09
  outer loop
    vertex 79.36834049276816 -58.71244337294697 2.9999999352586837
    vertex 76.37248870657072 -58.71244337294697 11.536763935258687
    vertex 79.36834049276816 -58.71244337294697 14.597718935258687
  endloop
endfacet
facet normal -3.038977054258674e-09 1.0 -3.8036366579433555e-09
  outer loop
    vertex 79.36834049276816 -58.71244337294697 14.597718935258687
    vertex 76.37248870657072 -58.71244337294697 11.536763935258687
    vertex 50.78170392037339 -58.71244337294697 14.597718935258687
  endloop
endfacet
facet normal -3.038977054258674e-09 1.0 -3.8036366579433555e-09
  outer loop
    vertex 89.37087549276818 -58.71244337294697 2.9999999352586837
    vertex 89.37087549276818 -58.71244337294697 -6.474131538755138e-08
    vertex 79.36834049276816 -58.71244337294697 2.9999999352586837
  endloop
endfacet
facet normal 1.0 -0.0 -0.0
  outer loop
    vertex 50.78170397209951 -48.508740800552154 3.0
    vertex 50.78170392037339 -58.71244337294697 14.597718935258687
    vertex 50.78170392037339 -58.71244380055216 2.9999999352586837
  endloop
endfacet
facet normal 1.0 -0.0 -0.0
  outer loop
    vertex 50.78170392037339 -58.71244337294697 14.597718935258687
    vertex 50.78170397209951 -48.508740800552154 3.0
    vertex 50.78170397209951 -48.508740800552154 14.597719000000001
  endloop
endfacet
facet normal 5.107667270565629e-09 -1.0 -4.205723639591145e-09
  outer loop
    vertex 89.37087554449434 -48.50874037294697 3.0
    vertex 76.37248875829691 -48.508740800552154 0.0
    vertex 89.37087554449434 -48.508740800552154 0.0
  endloop
endfacet
facet normal 5.107667270565629e-09 -1.0 -4.205723639591145e-09
  outer loop
    vertex 76.37248875829691 -48.508740800552154 0.0
    vertex 89.37087554449434 -48.50874037294697 3.0
    vertex 79.36834054449433 -48.50874037294697 3.0
  endloop
endfacet
facet normal 5.107667270565629e-09 -1.0 -4.205723639591145e-09
  outer loop
    vertex 76.37248875829691 -48.508740800552154 0.0
    vertex 79.36834054449433 -48.50874037294697 3.0
    vertex 76.3724887582969 -48.508740800552154 11.536764
  endloop
endfacet
facet normal 5.107667270565629e-09 -1.0 -4.205723639591145e-09
  outer loop
    vertex 76.3724887582969 -48.508740800552154 11.536764
    vertex 79.36834054449433 -48.50874037294697 3.0
    vertex 79.36834054449433 -48.508740800552154 14.597719000000001
  endloop
endfacet
facet normal 5.107667270565629e-09 -1.0 -4.205723639591145e-09
  outer loop
    vertex 76.3724887582969 -48.508740800552154 11.536764
    vertex 79.36834054449433 -48.508740800552154 14.597719000000001
    vertex 53.772488758296895 -48.508740800552154 11.536764
  endloop
endfacet
facet normal 5.107667270565629e-09 -1.0 -4.205723639591145e-09
  outer loop
    vertex 53.772488758296895 -48.508740800552154 0.0
    vertex 50.78170397209951 -48.508740800552154 3.0
    vertex 40.78170397209951 -48.508740800552154 0.0
  endloop
endfacet
facet normal 5.107667270565629e-09 -1.0 -4.205723639591145e-09
  outer loop
    vertex 50.78170397209951 -48.508740800552154 3.0
    vertex 53.772488758296895 -48.508740800552154 0.0
    vertex 53.772488758296895 -48.508740800552154 11.536764
  endloop
endfacet
facet normal 5.107667270565629e-09 -1.0 -4.205723639591145e-09
  outer loop
    vertex 50.78170397209951 -48.508740800552154 3.0
    vertex 53.772488758296895 -48.508740800552154 11.536764
    vertex 50.78170397209951 -48.508740800552154 14.597719000000001
  endloop
endfacet
facet normal 5.107667270565629e-09 -1.0 -4.205723639591145e-09
  outer loop
    vertex 50.78170397209951 -48.508740800552154 14.597719000000001
    vertex 53.772488758296895 -48.508740800552154 11.536764
    vertex 79.36834054449433 -48.508740800552154 14.597719000000001
  endloop
endfacet
facet normal 5.107667270565629e-09 -1.0 -4.205723639591145e-09
  outer loop
    vertex 40.78170397209951 -48.508740800552154 3.0
    vertex 40.78170397209951 -48.508740800552154 0.0
    vertex 50.78170397209951 -48.508740800552154 3.0
  endloop
endfacet
facet normal -1.0 0.0 0.0
  outer loop
    vertex 79.36834054449433 -48.508740800552154 14.597719000000001
    vertex 79.36834049276816 -58.71244337294697 2.9999999352586837
    vertex 79.36834049276816 -58.71244337294697 14.597718935258687
  endloop
endfacet
facet normal -1.0 0.0 0.0
  outer loop
    vertex 79.36834049276816 -58.71244337294697 2.9999999352586837
    vertex 79.36834054449433 -48.508740800552154 14.597719000000001
    vertex 79.36834054449433 -48.50874037294697 3.0
  endloop
endfacet
facet normal 0.0 0.0 1.0
  outer loop
    vertex 76.37248870657072 -58.71244337294697 11.536763935258687
    vertex 53.772488758296895 -48.508740800552154 11.536764
    vertex 53.772488706570726 -58.71244337294697 11.536763935258687
  endloop
endfacet
facet normal 0.0 0.0 1.0
  outer loop
    vertex 53.772488758296895 -48.508740800552154 11.536764
    vertex 76.37248870657072 -58.71244337294697 11.536763935258687
    vertex 76.3724887582969 -48.508740800552154 11.536764
  endloop
endfacet
facet normal 0.0 0.0 -1.0
  outer loop
    vertex 76.37248875829691 -48.508740800552154 0.0
    vertex 82.91458178649741 -53.22071875004598 1.8340575558273286e-09
    vertex 82.86325401863125 -53.61059185391234 -6.396424223620301e-10
  endloop
endfacet
facet normal 0.0 0.0 -1.0
  outer loop
    vertex 82.91458178649741 -53.22071875004598 1.8340575558273286e-09
    vertex 76.37248875829691 -48.508740800552154 0.0
    vertex 83.06506718753894 -52.85741485391234 4.139178527706733e-09
  endloop
endfacet
facet normal 0.0 0.0 -1.0
  outer loop
    vertex 83.06506718753894 -52.85741485391234 4.139178527706733e-09
    vertex 76.37248875829691 -48.508740800552154 0.0
    vertex 83.30445489036377 -52.545438725644864 6.118631440399369e-09
  endloop
endfacet
facet normal 0.0 0.0 -1.0
  outer loop
    vertex 83.30445489036377 -52.545438725644864 6.118631440399369e-09
    vertex 76.37248875829691 -48.508740800552154 0.0
    vertex 83.61643101863126 -52.306051022820036 7.637518967262834e-09
  endloop
endfacet
facet normal 0.0 0.0 -1.0
  outer loop
    vertex 83.61643101863126 -52.306051022820036 7.637518967262834e-09
    vertex 76.37248875829691 -48.508740800552154 0.0
    vertex 89.37087554449434 -48.508740800552154 0.0
  endloop
endfacet
facet normal 0.0 0.0 -1.0
  outer loop
    vertex 83.61643101863126 -52.306051022820036 7.637518967262834e-09
    vertex 89.37087554449434 -48.508740800552154 0.0
    vertex 83.97973491476489 -52.15556562177851 8.592331418588727e-09
  endloop
endfacet
facet normal 0.0 0.0 -1.0
  outer loop
    vertex 83.97973491476489 -52.15556562177851 8.592331418588727e-09
    vertex 89.37087554449434 -48.508740800552154 0.0
    vertex 84.36960801863125 -52.104237853912345 8.918000182767116e-09
  endloop
endfacet
facet normal 0.0 0.0 -1.0
  outer loop
    vertex 84.36960801863125 -52.104237853912345 8.918000182767116e-09
    vertex 89.37087554449434 -48.508740800552154 0.0
    vertex 84.7594811224976 -52.15556562177851 8.592331418588727e-09
  endloop
endfacet
facet normal 0.0 0.0 -1.0
  outer loop
    vertex 84.7594811224976 -52.15556562177851 8.592331418588727e-09
    vertex 89.37087554449434 -48.508740800552154 0.0
    vertex 85.12278501863125 -52.306051022820036 7.637518967262834e-09
  endloop
endfacet
facet normal 0.0 0.0 -1.0
  outer loop
    vertex 85.12278501863125 -52.306051022820036 7.637518967262834e-09
    vertex 89.37087554449434 -48.508740800552154 0.0
    vertex 85.43476114689872 -52.545438725644864 6.118631440399369e-09
  endloop
endfacet
facet normal 0.0 0.0 -1.0
  outer loop
    vertex 85.43476114689872 -52.545438725644864 6.118631440399369e-09
    vertex 89.37087554449434 -48.508740800552154 0.0
    vertex 85.67414884972355 -52.857414853912346 4.139178527706733e-09
  endloop
endfacet
facet normal 0.0 0.0 -1.0
  outer loop
    vertex 85.67414884972355 -52.857414853912346 4.139178527706733e-09
    vertex 89.37087554449434 -48.508740800552154 0.0
    vertex 85.82463425076509 -53.22071875004598 1.8340575558273286e-09
  endloop
endfacet
facet normal 0.0 0.0 -1.0
  outer loop
    vertex 85.82463425076509 -53.22071875004598 1.8340575558273286e-09
    vertex 89.37087554449434 -48.508740800552154 0.0
    vertex 85.87596201863124 -53.61059185391234 -6.396424223620301e-10
  endloop
endfacet
facet normal 0.0 0.0 -1.0
  outer loop
    vertex 85.87596201863124 -53.61059185391234 -6.396424223620301e-10
    vertex 89.37087554449434 -48.508740800552154 0.0
    vertex 89.37087549276818 -58.71244337294697 -6.474131538755138e-08
  endloop
endfacet
facet normal 0.0 0.0 -1.0
  outer loop
    vertex 76.37248870657073 -58.71244337294697 -6.474131538755138e-08
    vertex 83.61643101863125 -54.91513268500464 -8.916803106995274e-09
    vertex 89.37087549276818 -58.71244337294697 -6.474131538755138e-08
  endloop
endfacet
facet normal 0.0 0.0 -1.0
  outer loop
    vertex 83.61643101863125 -54.91513268500464 -8.916803106995274e-09
    vertex 76.37248870657073 -58.71244337294697 -6.474131538755138e-08
    vertex 83.30445489036377 -54.675744982179815 -7.397915580131808e-09
  endloop
endfacet
facet normal 0.0 0.0 -1.0
  outer loop
    vertex 83.30445489036377 -54.675744982179815 -7.397915580131808e-09
    vertex 76.37248870657073 -58.71244337294697 -6.474131538755138e-08
    vertex 76.37248875829691 -48.508740800552154 0.0
  endloop
endfacet
facet normal 0.0 0.0 -1.0
  outer loop
    vertex 83.30445489036377 -54.675744982179815 -7.397915580131808e-09
    vertex 76.37248875829691 -48.508740800552154 0.0
    vertex 83.06506718753894 -54.36376885391233 -5.418463372430793e-09
  endloop
endfacet
facet normal 0.0 0.0 -1.0
  outer loop
    vertex 83.06506718753894 -54.36376885391233 -5.418463372430793e-09
    vertex 76.37248875829691 -48.508740800552154 0.0
    vertex 82.91458178649741 -54.000464957778696 -3.1133424005513885e-09
  endloop
endfacet
facet normal 0.0 0.0 -1.0
  outer loop
    vertex 82.91458178649741 -54.000464957778696 -3.1133424005513885e-09
    vertex 76.37248875829691 -48.508740800552154 0.0
    vertex 82.86325401863125 -53.61059185391234 -6.396424223620301e-10
  endloop
endfacet
facet normal 0.0 0.0 -1.0
  outer loop
    vertex 89.37087549276818 -58.71244337294697 -6.474131538755138e-08
    vertex 83.61643101863125 -54.91513268500464 -8.916803106995274e-09
    vertex 83.97973491476489 -55.06561808604617 -9.871615558321167e-09
  endloop
endfacet
facet normal 0.0 0.0 -1.0
  outer loop
    vertex 89.37087549276818 -58.71244337294697 -6.474131538755138e-08
    vertex 83.97973491476489 -55.06561808604617 -9.871615558321167e-09
    vertex 84.36960801863125 -55.116945853912334 -1.0197284322499556e-08
  endloop
endfacet
facet normal 0.0 0.0 -1.0
  outer loop
    vertex 89.37087549276818 -58.71244337294697 -6.474131538755138e-08
    vertex 84.36960801863125 -55.116945853912334 -1.0197284322499556e-08
    vertex 84.7594811224976 -55.06561808604617 -9.871615558321167e-09
  endloop
endfacet
facet normal 0.0 0.0 -1.0
  outer loop
    vertex 89.37087549276818 -58.71244337294697 -6.474131538755138e-08
    vertex 84.7594811224976 -55.06561808604617 -9.871615558321167e-09
    vertex 85.12278501863123 -54.91513268500464 -8.916803106995274e-09
  endloop
endfacet
facet normal 0.0 0.0 -1.0
  outer loop
    vertex 89.37087549276818 -58.71244337294697 -6.474131538755138e-08
    vertex 85.12278501863123 -54.91513268500464 -8.916803106995274e-09
    vertex 85.43476114689872 -54.675744982179815 -7.397915580131808e-09
  endloop
endfacet
facet normal 0.0 0.0 -1.0
  outer loop
    vertex 89.37087549276818 -58.71244337294697 -6.474131538755138e-08
    vertex 85.43476114689872 -54.675744982179815 -7.397915580131808e-09
    vertex 85.67414884972355 -54.36376885391234 -5.418463372430793e-09
  endloop
endfacet
facet normal 0.0 0.0 -1.0
  outer loop
    vertex 89.37087549276818 -58.71244337294697 -6.474131538755138e-08
    vertex 85.67414884972355 -54.36376885391234 -5.418463372430793e-09
    vertex 85.82463425076509 -54.000464957778696 -3.1133424005513885e-09
  endloop
endfacet
facet normal 0.0 0.0 -1.0
  outer loop
    vertex 89.37087549276818 -58.71244337294697 -6.474131538755138e-08
    vertex 85.82463425076509 -54.000464957778696 -3.1133424005513885e-09
    vertex 85.87596201863124 -53.61059185391234 -6.396424223620301e-10
  endloop
endfacet
facet normal -1.0 0.0 0.0
  outer loop
    vertex 89.37087554449434 -48.50874037294697 3.0
    vertex 89.37087549276818 -58.71244337294697 -6.474131538755138e-08
    vertex 89.37087549276818 -58.71244337294697 2.9999999352586837
  endloop
endfacet
facet normal -1.0 0.0 0.0
  outer loop
    vertex 89.37087549276818 -58.71244337294697 -6.474131538755138e-08
    vertex 89.37087554449434 -48.50874037294697 3.0
    vertex 89.37087554449434 -48.508740800552154 0.0
  endloop
endfacet
facet normal -1.9096395303775033e-18 6.344884466672653e-09 -1.0
  outer loop
    vertex 79.36834054449433 -48.50874037294697 3.0
    vertex 82.91458178649741 -53.220718769080605 2.9999999701030418
    vertex 82.86325401863125 -53.61059187294697 2.999999967629342
  endloop
endfacet
facet normal -1.9096395303775033e-18 6.344884466672653e-09 -1.0
  outer loop
    vertex 82.91458178649741 -53.220718769080605 2.9999999701030418
    vertex 79.36834054449433 -48.50874037294697 3.0
    vertex 83.06506718753894 -52.85741487294696 2.9999999724081627
  endloop
endfacet
facet normal -1.9096395303775033e-18 6.344884466672653e-09 -1.0
  outer loop
    vertex 83.06506718753894 -52.85741487294696 2.9999999724081627
    vertex 79.36834054449433 -48.50874037294697 3.0
    vertex 83.30445489036377 -52.545438744679494 2.9999999743876153
  endloop
endfacet
facet normal -1.9096395303775033e-18 6.344884466672653e-09 -1.0
  outer loop
    vertex 83.30445489036377 -52.545438744679494 2.9999999743876153
    vertex 79.36834054449433 -48.50874037294697 3.0
    vertex 83.61643101863126 -52.30605104185466 2.999999975906503
  endloop
endfacet
facet normal -1.9096395303775033e-18 6.344884466672653e-09 -1.0
  outer loop
    vertex 83.61643101863126 -52.30605104185466 2.999999975906503
    vertex 79.36834054449433 -48.50874037294697 3.0
    vertex 89.37087554449434 -48.50874037294697 3.0
  endloop
endfacet
facet normal -1.9096395303775033e-18 6.344884466672653e-09 -1.0
  outer loop
    vertex 83.61643101863126 -52.30605104185466 2.999999975906503
    vertex 89.37087554449434 -48.50874037294697 3.0
    vertex 83.97973491476489 -52.15556564081313 2.9999999768613153
  endloop
endfacet
facet normal -1.9096395303775033e-18 6.344884466672653e-09 -1.0
  outer loop
    vertex 83.97973491476489 -52.15556564081313 2.9999999768613153
    vertex 89.37087554449434 -48.50874037294697 3.0
    vertex 84.36960801863125 -52.104237872946975 2.999999977186984
  endloop
endfacet
facet normal -1.9096395303775033e-18 6.344884466672653e-09 -1.0
  outer loop
    vertex 84.36960801863125 -52.104237872946975 2.999999977186984
    vertex 89.37087554449434 -48.50874037294697 3.0
    vertex 84.7594811224976 -52.15556564081313 2.9999999768613153
  endloop
endfacet
facet normal -1.9096395303775033e-18 6.344884466672653e-09 -1.0
  outer loop
    vertex 84.7594811224976 -52.15556564081313 2.9999999768613153
    vertex 89.37087554449434 -48.50874037294697 3.0
    vertex 85.12278501863125 -52.30605104185466 2.999999975906503
  endloop
endfacet
facet normal -1.9096395303775033e-18 6.344884466672653e-09 -1.0
  outer loop
    vertex 85.12278501863125 -52.30605104185466 2.999999975906503
    vertex 89.37087554449434 -48.50874037294697 3.0
    vertex 85.43476114689872 -52.545438744679494 2.9999999743876153
  endloop
endfacet
facet normal -1.9096395303775033e-18 6.344884466672653e-09 -1.0
  outer loop
    vertex 85.43476114689872 -52.545438744679494 2.9999999743876153
    vertex 89.37087554449434 -48.50874037294697 3.0
    vertex 85.67414884972355 -52.857414872946975 2.9999999724081627
  endloop
endfacet
facet normal -1.9096395303775033e-18 6.344884466672653e-09 -1.0
  outer loop
    vertex 85.67414884972355 -52.857414872946975 2.9999999724081627
    vertex 89.37087554449434 -48.50874037294697 3.0
    vertex 85.82463425076509 -53.220718769080605 2.9999999701030418
  endloop
endfacet
facet normal -1.9096395303775033e-18 6.344884466672653e-09 -1.0
  outer loop
    vertex 85.82463425076509 -53.220718769080605 2.9999999701030418
    vertex 89.37087554449434 -48.50874037294697 3.0
    vertex 85.87596201863124 -53.61059187294697 2.999999967629342
  endloop
endfacet
facet normal -1.9096395303775033e-18 6.344884466672653e-09 -1.0
  outer loop
    vertex 85.87596201863124 -53.61059187294697 2.999999967629342
    vertex 89.37087554449434 -48.50874037294697 3.0
    vertex 89.37087549276818 -58.71244337294697 2.9999999352586837
  endloop
endfacet
facet normal -1.9096395303775033e-18 6.344884466672653e-09 -1.0
  outer loop
    vertex 79.36834049276816 -58.71244337294697 2.9999999352586837
    vertex 83.61643101863125 -54.91513270403927 2.999999959352181
    vertex 89.37087549276818 -58.71244337294697 2.9999999352586837
  endloop
endfacet
facet normal -1.9096395303775033e-18 6.344884466672653e-09 -1.0
  outer loop
    vertex 83.61643101863125 -54.91513270403927 2.999999959352181
    vertex 79.36834049276816 -58.71244337294697 2.9999999352586837
    vertex 83.30445489036377 -54.675745001214445 2.9999999608710683
  endloop
endfacet
facet normal -1.9096395303775033e-18 6.344884466672653e-09 -1.0
  outer loop
    vertex 83.30445489036377 -54.675745001214445 2.9999999608710683
    vertex 79.36834049276816 -58.71244337294697 2.9999999352586837
    vertex 83.06506718753894 -54.363768872946956 2.999999962850521
  endloop
endfacet
facet normal -1.9096395303775033e-18 6.344884466672653e-09 -1.0
  outer loop
    vertex 83.06506718753894 -54.363768872946956 2.999999962850521
    vertex 79.36834049276816 -58.71244337294697 2.9999999352586837
    vertex 79.36834054449433 -48.50874037294697 3.0
  endloop
endfacet
facet normal -1.9096395303775033e-18 6.344884466672653e-09 -1.0
  outer loop
    vertex 83.06506718753894 -54.363768872946956 2.999999962850521
    vertex 79.36834054449433 -48.50874037294697 3.0
    vertex 82.91458178649741 -54.000464976813326 2.999999965155642
  endloop
endfacet
facet normal -1.9096395303775033e-18 6.344884466672653e-09 -1.0
  outer loop
    vertex 82.91458178649741 -54.000464976813326 2.999999965155642
    vertex 79.36834054449433 -48.50874037294697 3.0
    vertex 82.86325401863125 -53.61059187294697 2.999999967629342
  endloop
endfacet
facet normal -1.9096395303775033e-18 6.344884466672653e-09 -1.0
  outer loop
    vertex 89.37087549276818 -58.71244337294697 2.9999999352586837
    vertex 83.61643101863125 -54.91513270403927 2.999999959352181
    vertex 83.97973491476489 -55.0656181050808 2.9999999583973684
  endloop
endfacet
facet normal -1.9096395303775033e-18 6.344884466672653e-09 -1.0
  outer loop
    vertex 89.37087549276818 -58.71244337294697 2.9999999352586837
    vertex 83.97973491476489 -55.0656181050808 2.9999999583973684
    vertex 84.36960801863125 -55.116945872946964 2.9999999580716996
  endloop
endfacet
facet normal -1.9096395303775033e-18 6.344884466672653e-09 -1.0
  outer loop
    vertex 89.37087549276818 -58.71244337294697 2.9999999352586837
    vertex 84.36960801863125 -55.116945872946964 2.9999999580716996
    vertex 84.7594811224976 -55.0656181050808 2.9999999583973684
  endloop
endfacet
facet normal -1.9096395303775033e-18 6.344884466672653e-09 -1.0
  outer loop
    vertex 89.37087549276818 -58.71244337294697 2.9999999352586837
    vertex 84.7594811224976 -55.0656181050808 2.9999999583973684
    vertex 85.12278501863123 -54.91513270403927 2.999999959352181
  endloop
endfacet
facet normal -1.9096395303775033e-18 6.344884466672653e-09 -1.0
  outer loop
    vertex 89.37087549276818 -58.71244337294697 2.9999999352586837
    vertex 85.12278501863123 -54.91513270403927 2.999999959352181
    vertex 85.43476114689872 -54.675745001214445 2.9999999608710683
  endloop
endfacet
facet normal -1.9096395303775033e-18 6.344884466672653e-09 -1.0
  outer loop
    vertex 89.37087549276818 -58.71244337294697 2.9999999352586837
    vertex 85.43476114689872 -54.675745001214445 2.9999999608710683
    vertex 85.67414884972355 -54.36376887294697 2.9999999628505205
  endloop
endfacet
facet normal -1.9096395303775033e-18 6.344884466672653e-09 -1.0
  outer loop
    vertex 89.37087549276818 -58.71244337294697 2.9999999352586837
    vertex 85.67414884972355 -54.36376887294697 2.9999999628505205
    vertex 85.82463425076509 -54.000464976813326 2.999999965155642
  endloop
endfacet
facet normal -1.9096395303775033e-18 6.344884466672653e-09 -1.0
  outer loop
    vertex 89.37087549276818 -58.71244337294697 2.9999999352586837
    vertex 85.82463425076509 -54.000464976813326 2.999999965155642
    vertex 85.87596201863124 -53.61059187294697 2.999999967629342
  endloop
endfacet
facet normal 0.0 0.0 -1.0
  outer loop
    vertex 40.78170397209951 -48.508740800552154 0.0
    vertex 44.33281520680284 -53.22236371386375 3.234650484962298e-09
    vertex 44.28170394623645 -53.610592281517526 7.713850877499873e-10
  endloop
endfacet
facet normal 0.0 0.0 -1.0
  outer loop
    vertex 44.33281520680284 -53.22236371386375 3.234650484962298e-09
    vertex 40.78170397209951 -48.508740800552154 0.0
    vertex 44.48266584055979 -52.86059228151753 5.530048917401497e-09
  endloop
endfacet
facet normal 0.0 0.0 -1.0
  outer loop
    vertex 44.48266584055979 -52.86059228151753 5.530048917401497e-09
    vertex 40.78170397209951 -48.508740800552154 0.0
    vertex 44.72104377445662 -52.5499321097377 7.501151204347688e-09
  endloop
endfacet
facet normal 0.0 0.0 -1.0
  outer loop
    vertex 44.72104377445662 -52.5499321097377 7.501151204347688e-09
    vertex 40.78170397209951 -48.508740800552154 0.0
    vertex 45.03170394623645 -52.31155417584087 9.013631767362805e-09
  endloop
endfacet
facet normal 0.0 0.0 -1.0
  outer loop
    vertex 45.03170394623645 -52.31155417584087 9.013631767362805e-09
    vertex 40.78170397209951 -48.508740800552154 0.0
    vertex 53.772488758296895 -48.508740800552154 0.0
  endloop
endfacet
facet normal 0.0 0.0 -1.0
  outer loop
    vertex 45.03170394623645 -52.31155417584087 9.013631767362805e-09
    vertex 53.772488758296895 -48.508740800552154 0.0
    vertex 45.393475378582664 -52.16170354208393 9.96441660156e-09
  endloop
endfacet
facet normal 0.0 0.0 -1.0
  outer loop
    vertex 45.393475378582664 -52.16170354208393 9.96441660156e-09
    vertex 53.772488758296895 -48.508740800552154 0.0
    vertex 45.78170394623645 -52.11059228151753 1.0288712042061388e-08
  endloop
endfacet
facet normal 0.0 0.0 -1.0
  outer loop
    vertex 45.78170394623645 -52.11059228151753 1.0288712042061388e-08
    vertex 53.772488758296895 -48.508740800552154 0.0
    vertex 46.16993251389023 -52.16170354208393 9.96441660156e-09
  endloop
endfacet
facet normal 0.0 0.0 -1.0
  outer loop
    vertex 46.16993251389023 -52.16170354208393 9.96441660156e-09
    vertex 53.772488758296895 -48.508740800552154 0.0
    vertex 46.53170394623644 -52.31155417584087 9.013631767362805e-09
  endloop
endfacet
facet normal 0.0 0.0 -1.0
  outer loop
    vertex 46.53170394623644 -52.31155417584087 9.013631767362805e-09
    vertex 53.772488758296895 -48.508740800552154 0.0
    vertex 46.84236411801627 -52.5499321097377 7.501151204347688e-09
  endloop
endfacet
facet normal 0.0 0.0 -1.0
  outer loop
    vertex 46.84236411801627 -52.5499321097377 7.501151204347688e-09
    vertex 53.772488758296895 -48.508740800552154 0.0
    vertex 47.0807420519131 -52.86059228151753 5.530048917401497e-09
  endloop
endfacet
facet normal 0.0 0.0 -1.0
  outer loop
    vertex 47.0807420519131 -52.86059228151753 5.530048917401497e-09
    vertex 53.772488758296895 -48.508740800552154 0.0
    vertex 47.23059268567005 -53.22236371386375 3.234650484962298e-09
  endloop
endfacet
facet normal 0.0 0.0 -1.0
  outer loop
    vertex 47.23059268567005 -53.22236371386375 3.234650484962298e-09
    vertex 53.772488758296895 -48.508740800552154 0.0
    vertex 47.28170394623644 -53.610592281517526 7.713850877499873e-10
  endloop
endfacet
facet normal 0.0 0.0 -1.0
  outer loop
    vertex 47.28170394623644 -53.610592281517526 7.713850877499873e-10
    vertex 53.772488758296895 -48.508740800552154 0.0
    vertex 53.772488706570726 -58.71244337294697 -6.474131538755138e-08
  endloop
endfacet
facet normal 0.0 0.0 -1.0
  outer loop
    vertex 40.78170392037339 -58.71244337294697 -6.474131538755138e-08
    vertex 45.03170394623645 -54.90963038719419 -7.470861591862831e-09
    vertex 53.772488706570726 -58.71244337294697 -6.474131538755138e-08
  endloop
endfacet
facet normal 0.0 0.0 -1.0
  outer loop
    vertex 45.03170394623645 -54.90963038719419 -7.470861591862831e-09
    vertex 40.78170392037339 -58.71244337294697 -6.474131538755138e-08
    vertex 44.72104377445662 -54.671252453297356 -5.958381028847714e-09
  endloop
endfacet
facet normal 0.0 0.0 -1.0
  outer loop
    vertex 44.72104377445662 -54.671252453297356 -5.958381028847714e-09
    vertex 40.78170392037339 -58.71244337294697 -6.474131538755138e-08
    vertex 44.48266584055979 -54.360592281517526 -3.987278036909902e-09
  endloop
endfacet
facet normal 0.0 0.0 -1.0
  outer loop
    vertex 44.48266584055979 -54.360592281517526 -3.987278036909902e-09
    vertex 40.78170392037339 -58.71244337294697 -6.474131538755138e-08
    vertex 40.78170397209951 -48.508740800552154 0.0
  endloop
endfacet
facet normal 0.0 0.0 -1.0
  outer loop
    vertex 44.48266584055979 -54.360592281517526 -3.987278036909902e-09
    vertex 40.78170397209951 -48.508740800552154 0.0
    vertex 44.33281520680284 -53.99882084917131 -1.6918803094623236e-09
  endloop
endfacet
facet normal 0.0 0.0 -1.0
  outer loop
    vertex 44.33281520680284 -53.99882084917131 -1.6918803094623236e-09
    vertex 40.78170397209951 -48.508740800552154 0.0
    vertex 44.28170394623645 -53.610592281517526 7.713850877499873e-10
  endloop
endfacet
facet normal 0.0 0.0 -1.0
  outer loop
    vertex 53.772488706570726 -58.71244337294697 -6.474131538755138e-08
    vertex 45.03170394623645 -54.90963038719419 -7.470861591862831e-09
    vertex 45.39347537858266 -55.05948102095113 -8.421646426060025e-09
  endloop
endfacet
facet normal 0.0 0.0 -1.0
  outer loop
    vertex 53.772488706570726 -58.71244337294697 -6.474131538755138e-08
    vertex 45.39347537858266 -55.05948102095113 -8.421646426060025e-09
    vertex 45.78170394623645 -55.110592281517526 -8.745941161569791e-09
  endloop
endfacet
facet normal 0.0 0.0 -1.0
  outer loop
    vertex 53.772488706570726 -58.71244337294697 -6.474131538755138e-08
    vertex 45.78170394623645 -55.110592281517526 -8.745941161569791e-09
    vertex 46.169932513890224 -55.05948102095113 -8.421646426060025e-09
  endloop
endfacet
facet normal 0.0 0.0 -1.0
  outer loop
    vertex 53.772488706570726 -58.71244337294697 -6.474131538755138e-08
    vertex 46.169932513890224 -55.05948102095113 -8.421646426060025e-09
    vertex 46.53170394623644 -54.90963038719419 -7.470861591862831e-09
  endloop
endfacet
facet normal 0.0 0.0 -1.0
  outer loop
    vertex 53.772488706570726 -58.71244337294697 -6.474131538755138e-08
    vertex 46.53170394623644 -54.90963038719419 -7.470861591862831e-09
    vertex 46.84236411801627 -54.671252453297356 -5.958381028847714e-09
  endloop
endfacet
facet normal 0.0 0.0 -1.0
  outer loop
    vertex 53.772488706570726 -58.71244337294697 -6.474131538755138e-08
    vertex 46.84236411801627 -54.671252453297356 -5.958381028847714e-09
    vertex 47.0807420519131 -54.360592281517526 -3.987278036909902e-09
  endloop
endfacet
facet normal 0.0 0.0 -1.0
  outer loop
    vertex 53.772488706570726 -58.71244337294697 -6.474131538755138e-08
    vertex 47.0807420519131 -54.360592281517526 -3.987278036909902e-09
    vertex 47.23059268567005 -53.99882084917131 -1.6918803094623236e-09
  endloop
endfacet
facet normal 0.0 0.0 -1.0
  outer loop
    vertex 53.772488706570726 -58.71244337294697 -6.474131538755138e-08
    vertex 47.23059268567005 -53.99882084917131 -1.6918803094623236e-09
    vertex 47.28170394623644 -53.610592281517526 7.713850877499873e-10
  endloop
endfacet
facet normal 1.0 0.0 0.0
  outer loop
    vertex 40.78170392037339 -58.71244337294697 -6.474131538755138e-08
    vertex 40.78170397209951 -48.508740800552154 3.0
    vertex 40.78170392037339 -58.71244380055216 2.9999999352586837
  endloop
endfacet
facet normal 1.0 0.0 0.0
  outer loop
    vertex 40.78170397209951 -48.508740800552154 3.0
    vertex 40.78170392037339 -58.71244337294697 -6.474131538755138e-08
    vertex 40.78170397209951 -48.508740800552154 0.0
  endloop
endfacet
facet normal -4.257605922946596e-25 6.3448844374226504e-09 -1.0
  outer loop
    vertex 40.78170397209951 -48.508740800552154 3.0
    vertex 44.33281520680284 -53.22236373289838 2.9999999700926074
    vertex 44.28170394623645 -53.610592300552156 2.999999967629342
  endloop
endfacet
facet normal -4.257605922946596e-25 6.3448844374226504e-09 -1.0
  outer loop
    vertex 44.33281520680284 -53.22236373289838 2.9999999700926074
    vertex 40.78170397209951 -48.508740800552154 3.0
    vertex 44.48266584055979 -52.860592300552156 2.9999999723880055
  endloop
endfacet
facet normal -4.257605922946596e-25 6.3448844374226504e-09 -1.0
  outer loop
    vertex 44.48266584055979 -52.860592300552156 2.9999999723880055
    vertex 40.78170397209951 -48.508740800552154 3.0
    vertex 44.72104377445662 -52.54993212877233 2.999999974359108
  endloop
endfacet
facet normal -4.257605922946596e-25 6.3448844374226504e-09 -1.0
  outer loop
    vertex 44.72104377445662 -52.54993212877233 2.999999974359108
    vertex 40.78170397209951 -48.508740800552154 3.0
    vertex 45.03170394623645 -52.31155419487549 2.9999999758715887
  endloop
endfacet
facet normal -4.257605922946596e-25 6.3448844374226504e-09 -1.0
  outer loop
    vertex 45.03170394623645 -52.31155419487549 2.9999999758715887
    vertex 40.78170397209951 -48.508740800552154 3.0
    vertex 50.78170397209951 -48.508740800552154 3.0
  endloop
endfacet
facet normal -4.257605922946596e-25 6.3448844374226504e-09 -1.0
  outer loop
    vertex 45.03170394623645 -52.31155419487549 2.9999999758715887
    vertex 50.78170397209951 -48.508740800552154 3.0
    vertex 45.393475378582664 -52.16170356111855 2.9999999768223735
  endloop
endfacet
facet normal -4.257605922946596e-25 6.3448844374226504e-09 -1.0
  outer loop
    vertex 45.393475378582664 -52.16170356111855 2.9999999768223735
    vertex 50.78170397209951 -48.508740800552154 3.0
    vertex 45.78170394623645 -52.110592300552156 2.9999999771466683
  endloop
endfacet
facet normal -4.257605922946596e-25 6.3448844374226504e-09 -1.0
  outer loop
    vertex 45.78170394623645 -52.110592300552156 2.9999999771466683
    vertex 50.78170397209951 -48.508740800552154 3.0
    vertex 46.16993251389023 -52.16170356111855 2.9999999768223735
  endloop
endfacet
facet normal -4.257605922946596e-25 6.3448844374226504e-09 -1.0
  outer loop
    vertex 46.16993251389023 -52.16170356111855 2.9999999768223735
    vertex 50.78170397209951 -48.508740800552154 3.0
    vertex 46.53170394623644 -52.31155419487549 2.9999999758715887
  endloop
endfacet
facet normal -4.257605922946596e-25 6.3448844374226504e-09 -1.0
  outer loop
    vertex 46.53170394623644 -52.31155419487549 2.9999999758715887
    vertex 50.78170397209951 -48.508740800552154 3.0
    vertex 46.84236411801627 -52.54993212877233 2.999999974359108
  endloop
endfacet
facet normal -4.257605922946596e-25 6.3448844374226504e-09 -1.0
  outer loop
    vertex 46.84236411801627 -52.54993212877233 2.999999974359108
    vertex 50.78170397209951 -48.508740800552154 3.0
    vertex 47.0807420519131 -52.860592300552156 2.9999999723880055
  endloop
endfacet
facet normal -4.257605922946596e-25 6.3448844374226504e-09 -1.0
  outer loop
    vertex 47.0807420519131 -52.860592300552156 2.9999999723880055
    vertex 50.78170397209951 -48.508740800552154 3.0
    vertex 47.23059268567005 -53.22236373289838 2.9999999700926074
  endloop
endfacet
facet normal -4.257605922946596e-25 6.3448844374226504e-09 -1.0
  outer loop
    vertex 47.23059268567005 -53.22236373289838 2.9999999700926074
    vertex 50.78170397209951 -48.508740800552154 3.0
    vertex 47.28170394623644 -53.610592300552156 2.999999967629342
  endloop
endfacet
facet normal -4.257605922946596e-25 6.3448844374226504e-09 -1.0
  outer loop
    vertex 47.28170394623644 -53.610592300552156 2.999999967629342
    vertex 50.78170397209951 -48.508740800552154 3.0
    vertex 50.78170392037339 -58.71244380055216 2.9999999352586837
  endloop
endfacet
facet normal -4.257605922946596e-25 6.3448844374226504e-09 -1.0
  outer loop
    vertex 40.78170392037339 -58.71244380055216 2.9999999352586837
    vertex 45.03170394623645 -54.909630406228814 2.9999999593870954
    vertex 50.78170392037339 -58.71244380055216 2.9999999352586837
  endloop
endfacet
facet normal -4.257605922946596e-25 6.3448844374226504e-09 -1.0
  outer loop
    vertex 45.03170394623645 -54.909630406228814 2.9999999593870954
    vertex 40.78170392037339 -58.71244380055216 2.9999999352586837
    vertex 44.72104377445662 -54.67125247233198 2.9999999608995758
  endloop
endfacet
facet normal -4.257605922946596e-25 6.3448844374226504e-09 -1.0
  outer loop
    vertex 44.72104377445662 -54.67125247233198 2.9999999608995758
    vertex 40.78170392037339 -58.71244380055216 2.9999999352586837
    vertex 44.48266584055979 -54.360592300552156 2.9999999628706786
  endloop
endfacet
facet normal -4.257605922946596e-25 6.3448844374226504e-09 -1.0
  outer loop
    vertex 44.48266584055979 -54.360592300552156 2.9999999628706786
    vertex 40.78170392037339 -58.71244380055216 2.9999999352586837
    vertex 40.78170397209951 -48.508740800552154 3.0
  endloop
endfacet
facet normal -4.257605922946596e-25 6.3448844374226504e-09 -1.0
  outer loop
    vertex 44.48266584055979 -54.360592300552156 2.9999999628706786
    vertex 40.78170397209951 -48.508740800552154 3.0
    vertex 44.33281520680284 -53.99882086820593 2.9999999651660767
  endloop
endfacet
facet normal -4.257605922946596e-25 6.3448844374226504e-09 -1.0
  outer loop
    vertex 44.33281520680284 -53.99882086820593 2.9999999651660767
    vertex 40.78170397209951 -48.508740800552154 3.0
    vertex 44.28170394623645 -53.610592300552156 2.999999967629342
  endloop
endfacet
facet normal -4.257605922946596e-25 6.3448844374226504e-09 -1.0
  outer loop
    vertex 50.78170392037339 -58.71244380055216 2.9999999352586837
    vertex 45.03170394623645 -54.909630406228814 2.9999999593870954
    vertex 45.39347537858266 -55.059481039985755 2.9999999584363106
  endloop
endfacet
facet normal -4.257605922946596e-25 6.3448844374226504e-09 -1.0
  outer loop
    vertex 50.78170392037339 -58.71244380055216 2.9999999352586837
    vertex 45.39347537858266 -55.059481039985755 2.9999999584363106
    vertex 45.78170394623645 -55.110592300552156 2.9999999581120154
  endloop
endfacet
facet normal -4.257605922946596e-25 6.3448844374226504e-09 -1.0
  outer loop
    vertex 50.78170392037339 -58.71244380055216 2.9999999352586837
    vertex 45.78170394623645 -55.110592300552156 2.9999999581120154
    vertex 46.169932513890224 -55.059481039985755 2.9999999584363106
  endloop
endfacet
facet normal -4.257605922946596e-25 6.3448844374226504e-09 -1.0
  outer loop
    vertex 50.78170392037339 -58.71244380055216 2.9999999352586837
    vertex 46.169932513890224 -55.059481039985755 2.9999999584363106
    vertex 46.53170394623644 -54.909630406228814 2.9999999593870954
  endloop
endfacet
facet normal -4.257605922946596e-25 6.3448844374226504e-09 -1.0
  outer loop
    vertex 50.78170392037339 -58.71244380055216 2.9999999352586837
    vertex 46.53170394623644 -54.909630406228814 2.9999999593870954
    vertex 46.84236411801627 -54.67125247233198 2.9999999608995758
  endloop
endfacet
facet normal -4.257605922946596e-25 6.3448844374226504e-09 -1.0
  outer loop
    vertex 50.78170392037339 -58.71244380055216 2.9999999352586837
    vertex 46.84236411801627 -54.67125247233198 2.9999999608995758
    vertex 47.0807420519131 -54.360592300552156 2.9999999628706786
  endloop
endfacet
facet normal -4.257605922946596e-25 6.3448844374226504e-09 -1.0
  outer loop
    vertex 50.78170392037339 -58.71244380055216 2.9999999352586837
    vertex 47.0807420519131 -54.360592300552156 2.9999999628706786
    vertex 47.23059268567005 -53.99882086820593 2.9999999651660767
  endloop
endfacet
facet normal -4.257605922946596e-25 6.3448844374226504e-09 -1.0
  outer loop
    vertex 50.78170392037339 -58.71244380055216 2.9999999352586837
    vertex 47.23059268567005 -53.99882086820593 2.9999999651660767
    vertex 47.28170394623644 -53.610592300552156 2.999999967629342
  endloop
endfacet
facet normal -0.9914448613738089 -0.13052619222006354 -8.281736043675447e-10
  outer loop
    vertex 82.86325401863125 -53.61059187294697 2.999999967629342
    vertex 82.91458178649741 -54.000464957778696 -3.1133424005513885e-09
    vertex 82.91458178649741 -54.000464976813326 2.999999965155642
  endloop
endfacet
facet normal -0.9914448613738089 -0.13052619222006354 -8.281736043675447e-10
  outer loop
    vertex 82.91458178649741 -54.000464957778696 -3.1133424005513885e-09
    vertex 82.86325401863125 -53.61059187294697 2.999999967629342
    vertex 82.86325401863125 -53.61059185391234 -6.396424223620301e-10
  endloop
endfacet
facet normal -0.9914448613738089 0.13052619222006354 8.281736378544244e-10
  outer loop
    vertex 82.91458178649741 -53.220718769080605 2.9999999701030418
    vertex 82.86325401863125 -53.61059185391234 -6.396424223620301e-10
    vertex 82.86325401863125 -53.61059187294697 2.999999967629342
  endloop
endfacet
facet normal -0.9914448613738089 0.13052619222006354 8.281736378544244e-10
  outer loop
    vertex 82.86325401863125 -53.61059185391234 -6.396424223620301e-10
    vertex 82.91458178649741 -53.220718769080605 2.9999999701030418
    vertex 82.91458178649741 -53.22071875004598 1.8340575558273286e-09
  endloop
endfacet
facet normal -0.9238795325112982 0.38268343236506214 2.4280822152778642e-09
  outer loop
    vertex 83.06506718753894 -52.85741487294696 2.9999999724081627
    vertex 82.91458178649741 -53.22071875004598 1.8340575558273286e-09
    vertex 82.91458178649741 -53.220718769080605 2.9999999701030418
  endloop
endfacet
facet normal -0.9238795325112982 0.38268343236506214 2.4280822152778642e-09
  outer loop
    vertex 82.91458178649741 -53.22071875004598 1.8340575558273286e-09
    vertex 83.06506718753894 -52.85741487294696 2.9999999724081627
    vertex 83.06506718753894 -52.85741485391234 4.139178527706733e-09
  endloop
endfacet
facet normal -0.7933533402912201 0.6087614290087405 3.862521002326241e-09
  outer loop
    vertex 83.30445489036377 -52.545438744679494 2.9999999743876153
    vertex 83.06506718753894 -52.85741485391234 4.139178527706733e-09
    vertex 83.06506718753894 -52.85741487294696 2.9999999724081627
  endloop
endfacet
facet normal -0.7933533402912201 0.6087614290087405 3.862521002326241e-09
  outer loop
    vertex 83.06506718753894 -52.85741485391234 4.139178527706733e-09
    vertex 83.30445489036377 -52.545438744679494 2.9999999743876153
    vertex 83.30445489036377 -52.545438725644864 6.118631440399369e-09
  endloop
endfacet
facet normal -0.6087614290087267 0.7933533402912305 5.033735366183396e-09
  outer loop
    vertex 83.30445489036377 -52.545438744679494 2.9999999743876153
    vertex 83.61643101863126 -52.306051022820036 7.637518967262834e-09
    vertex 83.30445489036377 -52.545438725644864 6.118631440399369e-09
  endloop
endfacet
facet normal -0.6087614290087267 0.7933533402912305 5.033735366183396e-09
  outer loop
    vertex 83.61643101863126 -52.306051022820036 7.637518967262834e-09
    vertex 83.30445489036377 -52.545438744679494 2.9999999743876153
    vertex 83.61643101863126 -52.30605104185466 2.999999975906503
  endloop
endfacet
facet normal -0.3826834323650723 0.9238795325112941 5.8619089834763945e-09
  outer loop
    vertex 83.61643101863126 -52.30605104185466 2.999999975906503
    vertex 83.97973491476489 -52.15556562177851 8.592331418588727e-09
    vertex 83.61643101863126 -52.306051022820036 7.637518967262834e-09
  endloop
endfacet
facet normal -0.3826834323650723 0.9238795325112941 5.8619089834763945e-09
  outer loop
    vertex 83.97973491476489 -52.15556562177851 8.592331418588727e-09
    vertex 83.61643101863126 -52.30605104185466 2.999999975906503
    vertex 83.97973491476489 -52.15556564081313 2.9999999768613153
  endloop
endfacet
facet normal -0.13052619222006354 0.9914448613738089 6.290603190807972e-09
  outer loop
    vertex 83.97973491476489 -52.15556564081313 2.9999999768613153
    vertex 84.36960801863125 -52.104237853912345 8.918000182767116e-09
    vertex 83.97973491476489 -52.15556562177851 8.592331418588727e-09
  endloop
endfacet
facet normal -0.13052619222006354 0.9914448613738089 6.290603190807972e-09
  outer loop
    vertex 84.36960801863125 -52.104237853912345 8.918000182767116e-09
    vertex 83.97973491476489 -52.15556564081313 2.9999999768613153
    vertex 84.36960801863125 -52.104237872946975 2.999999977186984
  endloop
endfacet
facet normal 0.13052619222006354 0.9914448613738089 6.290603186399342e-09
  outer loop
    vertex 84.36960801863125 -52.104237853912345 8.918000182767116e-09
    vertex 84.7594811224976 -52.15556564081313 2.9999999768613153
    vertex 84.7594811224976 -52.15556562177851 8.592331418588727e-09
  endloop
endfacet
facet normal 0.13052619222006354 0.9914448613738089 6.290603186399342e-09
  outer loop
    vertex 84.7594811224976 -52.15556564081313 2.9999999768613153
    vertex 84.36960801863125 -52.104237853912345 8.918000182767116e-09
    vertex 84.36960801863125 -52.104237872946975 2.999999977186984
  endloop
endfacet
facet normal 0.38268343236506214 0.9238795325112982 5.861908970550967e-09
  outer loop
    vertex 84.7594811224976 -52.15556562177851 8.592331418588727e-09
    vertex 85.12278501863125 -52.30605104185466 2.999999975906503
    vertex 85.12278501863125 -52.306051022820036 7.637518967262834e-09
  endloop
endfacet
facet normal 0.38268343236506214 0.9238795325112982 5.861908970550967e-09
  outer loop
    vertex 85.12278501863125 -52.30605104185466 2.999999975906503
    vertex 84.7594811224976 -52.15556562177851 8.592331418588727e-09
    vertex 84.7594811224976 -52.15556564081313 2.9999999768613153
  endloop
endfacet
facet normal 0.6087614290087405 0.7933533402912201 5.033735345621903e-09
  outer loop
    vertex 85.12278501863125 -52.306051022820036 7.637518967262834e-09
    vertex 85.43476114689872 -52.545438744679494 2.9999999743876153
    vertex 85.43476114689872 -52.545438725644864 6.118631440399369e-09
  endloop
endfacet
facet normal 0.6087614290087405 0.7933533402912201 5.033735345621903e-09
  outer loop
    vertex 85.43476114689872 -52.545438744679494 2.9999999743876153
    vertex 85.12278501863125 -52.306051022820036 7.637518967262834e-09
    vertex 85.12278501863125 -52.30605104185466 2.999999975906503
  endloop
endfacet
facet normal 0.7933533402912305 0.6087614290087267 3.862520975529979e-09
  outer loop
    vertex 85.67414884972355 -52.857414853912346 4.139178527706733e-09
    vertex 85.43476114689872 -52.545438744679494 2.9999999743876153
    vertex 85.67414884972355 -52.857414872946975 2.9999999724081627
  endloop
endfacet
facet normal 0.7933533402912305 0.6087614290087267 3.862520975529979e-09
  outer loop
    vertex 85.43476114689872 -52.545438744679494 2.9999999743876153
    vertex 85.67414884972355 -52.857414853912346 4.139178527706733e-09
    vertex 85.43476114689872 -52.545438725644864 6.118631440399369e-09
  endloop
endfacet
facet normal 0.9238795325112941 0.3826834323650723 2.428082184073125e-09
  outer loop
    vertex 85.82463425076509 -53.22071875004598 1.8340575558273286e-09
    vertex 85.67414884972355 -52.857414872946975 2.9999999724081627
    vertex 85.82463425076509 -53.220718769080605 2.9999999701030418
  endloop
endfacet
facet normal 0.9238795325112941 0.3826834323650723 2.428082184073125e-09
  outer loop
    vertex 85.67414884972355 -52.857414872946975 2.9999999724081627
    vertex 85.82463425076509 -53.22071875004598 1.8340575558273286e-09
    vertex 85.67414884972355 -52.857414853912346 4.139178527706733e-09
  endloop
endfacet
facet normal 0.9914448613738089 0.13052619222006354 8.281736043675447e-10
  outer loop
    vertex 85.87596201863124 -53.61059185391234 -6.396424223620301e-10
    vertex 85.82463425076509 -53.220718769080605 2.9999999701030418
    vertex 85.87596201863124 -53.61059187294697 2.999999967629342
  endloop
endfacet
facet normal 0.9914448613738089 0.13052619222006354 8.281736043675447e-10
  outer loop
    vertex 85.82463425076509 -53.220718769080605 2.9999999701030418
    vertex 85.87596201863124 -53.61059185391234 -6.396424223620301e-10
    vertex 85.82463425076509 -53.22071875004598 1.8340575558273286e-09
  endloop
endfacet
facet normal 0.9914448613738089 -0.13052619222006354 -8.281736378544244e-10
  outer loop
    vertex 85.82463425076509 -54.000464957778696 -3.1133424005513885e-09
    vertex 85.87596201863124 -53.61059187294697 2.999999967629342
    vertex 85.82463425076509 -54.000464976813326 2.999999965155642
  endloop
endfacet
facet normal 0.9914448613738089 -0.13052619222006354 -8.281736378544244e-10
  outer loop
    vertex 85.87596201863124 -53.61059187294697 2.999999967629342
    vertex 85.82463425076509 -54.000464957778696 -3.1133424005513885e-09
    vertex 85.87596201863124 -53.61059185391234 -6.396424223620301e-10
  endloop
endfacet
facet normal 0.9238795325112982 -0.38268343236506214 -2.4280822152778642e-09
  outer loop
    vertex 85.67414884972355 -54.36376885391234 -5.418463372430793e-09
    vertex 85.82463425076509 -54.000464976813326 2.999999965155642
    vertex 85.67414884972355 -54.36376887294697 2.9999999628505205
  endloop
endfacet
facet normal 0.9238795325112982 -0.38268343236506214 -2.4280822152778642e-09
  outer loop
    vertex 85.82463425076509 -54.000464976813326 2.999999965155642
    vertex 85.67414884972355 -54.36376885391234 -5.418463372430793e-09
    vertex 85.82463425076509 -54.000464957778696 -3.1133424005513885e-09
  endloop
endfacet
facet normal 0.7933533402912201 -0.6087614290087405 -3.862521002326241e-09
  outer loop
    vertex 85.43476114689872 -54.675744982179815 -7.397915580131808e-09
    vertex 85.67414884972355 -54.36376887294697 2.9999999628505205
    vertex 85.43476114689872 -54.675745001214445 2.9999999608710683
  endloop
endfacet
facet normal 0.7933533402912201 -0.6087614290087405 -3.862521002326241e-09
  outer loop
    vertex 85.67414884972355 -54.36376887294697 2.9999999628505205
    vertex 85.43476114689872 -54.675744982179815 -7.397915580131808e-09
    vertex 85.67414884972355 -54.36376885391234 -5.418463372430793e-09
  endloop
endfacet
facet normal 0.6087614290087267 -0.7933533402912305 -5.033735366183396e-09
  outer loop
    vertex 85.43476114689872 -54.675744982179815 -7.397915580131808e-09
    vertex 85.12278501863123 -54.91513270403927 2.999999959352181
    vertex 85.12278501863123 -54.91513268500464 -8.916803106995274e-09
  endloop
endfacet
facet normal 0.6087614290087267 -0.7933533402912305 -5.033735366183396e-09
  outer loop
    vertex 85.12278501863123 -54.91513270403927 2.999999959352181
    vertex 85.43476114689872 -54.675744982179815 -7.397915580131808e-09
    vertex 85.43476114689872 -54.675745001214445 2.9999999608710683
  endloop
endfacet
facet normal 0.3826834323650723 -0.9238795325112941 -5.8619089834763945e-09
  outer loop
    vertex 85.12278501863123 -54.91513268500464 -8.916803106995274e-09
    vertex 84.7594811224976 -55.0656181050808 2.9999999583973684
    vertex 84.7594811224976 -55.06561808604617 -9.871615558321167e-09
  endloop
endfacet
facet normal 0.3826834323650723 -0.9238795325112941 -5.8619089834763945e-09
  outer loop
    vertex 84.7594811224976 -55.0656181050808 2.9999999583973684
    vertex 85.12278501863123 -54.91513268500464 -8.916803106995274e-09
    vertex 85.12278501863123 -54.91513270403927 2.999999959352181
  endloop
endfacet
facet normal 0.13052619222006354 -0.9914448613738089 -6.290603190807972e-09
  outer loop
    vertex 84.7594811224976 -55.06561808604617 -9.871615558321167e-09
    vertex 84.36960801863125 -55.116945872946964 2.9999999580716996
    vertex 84.36960801863125 -55.116945853912334 -1.0197284322499556e-08
  endloop
endfacet
facet normal 0.13052619222006354 -0.9914448613738089 -6.290603190807972e-09
  outer loop
    vertex 84.36960801863125 -55.116945872946964 2.9999999580716996
    vertex 84.7594811224976 -55.06561808604617 -9.871615558321167e-09
    vertex 84.7594811224976 -55.0656181050808 2.9999999583973684
  endloop
endfacet
facet normal -0.13052619222006354 -0.9914448613738089 -6.290603186399342e-09
  outer loop
    vertex 84.36960801863125 -55.116945872946964 2.9999999580716996
    vertex 83.97973491476489 -55.06561808604617 -9.871615558321167e-09
    vertex 84.36960801863125 -55.116945853912334 -1.0197284322499556e-08
  endloop
endfacet
facet normal -0.13052619222006354 -0.9914448613738089 -6.290603186399342e-09
  outer loop
    vertex 83.97973491476489 -55.06561808604617 -9.871615558321167e-09
    vertex 84.36960801863125 -55.116945872946964 2.9999999580716996
    vertex 83.97973491476489 -55.0656181050808 2.9999999583973684
  endloop
endfacet
facet normal -0.38268343236506214 -0.9238795325112982 -5.861908970550967e-09
  outer loop
    vertex 83.97973491476489 -55.0656181050808 2.9999999583973684
    vertex 83.61643101863125 -54.91513268500464 -8.916803106995274e-09
    vertex 83.97973491476489 -55.06561808604617 -9.871615558321167e-09
  endloop
endfacet
facet normal -0.38268343236506214 -0.9238795325112982 -5.861908970550967e-09
  outer loop
    vertex 83.61643101863125 -54.91513268500464 -8.916803106995274e-09
    vertex 83.97973491476489 -55.0656181050808 2.9999999583973684
    vertex 83.61643101863125 -54.91513270403927 2.999999959352181
  endloop
endfacet
facet normal -0.6087614290087405 -0.7933533402912201 -5.033735345621903e-09
  outer loop
    vertex 83.61643101863125 -54.91513270403927 2.999999959352181
    vertex 83.30445489036377 -54.675744982179815 -7.397915580131808e-09
    vertex 83.61643101863125 -54.91513268500464 -8.916803106995274e-09
  endloop
endfacet
facet normal -0.6087614290087405 -0.7933533402912201 -5.033735345621903e-09
  outer loop
    vertex 83.30445489036377 -54.675744982179815 -7.397915580131808e-09
    vertex 83.61643101863125 -54.91513270403927 2.999999959352181
    vertex 83.30445489036377 -54.675745001214445 2.9999999608710683
  endloop
endfacet
facet normal -0.7933533402912305 -0.6087614290087267 -3.862520975529979e-09
  outer loop
    vertex 83.06506718753894 -54.363768872946956 2.999999962850521
    vertex 83.30445489036377 -54.675744982179815 -7.397915580131808e-09
    vertex 83.30445489036377 -54.675745001214445 2.9999999608710683
  endloop
endfacet
facet normal -0.7933533402912305 -0.6087614290087267 -3.862520975529979e-09
  outer loop
    vertex 83.30445489036377 -54.675744982179815 -7.397915580131808e-09
    vertex 83.06506718753894 -54.363768872946956 2.999999962850521
    vertex 83.06506718753894 -54.36376885391233 -5.418463372430793e-09
  endloop
endfacet
facet normal -0.9238795325112941 -0.3826834323650723 -2.428082184073125e-09
  outer loop
    vertex 82.91458178649741 -54.000464976813326 2.999999965155642
    vertex 83.06506718753894 -54.36376885391233 -5.418463372430793e-09
    vertex 83.06506718753894 -54.363768872946956 2.999999962850521
  endloop
endfacet
facet normal -0.9238795325112941 -0.3826834323650723 -2.428082184073125e-09
  outer loop
    vertex 83.06506718753894 -54.36376885391233 -5.418463372430793e-09
    vertex 82.91458178649741 -54.000464976813326 2.999999965155642
    vertex 82.91458178649741 -54.000464957778696 -3.1133424005513885e-09
  endloop
endfacet
facet normal 0.9914448613738113 0.13052619222004555 8.281736026691762e-10
  outer loop
    vertex 47.28170394623644 -53.610592281517526 7.713850877499873e-10
    vertex 47.23059268567005 -53.22236373289838 2.9999999700926074
    vertex 47.28170394623644 -53.610592300552156 2.999999967629342
  endloop
endfacet
facet normal 0.9914448613738113 0.13052619222004555 8.281736026691762e-10
  outer loop
    vertex 47.23059268567005 -53.22236373289838 2.9999999700926074
    vertex 47.28170394623644 -53.610592281517526 7.713850877499873e-10
    vertex 47.23059268567005 -53.22236371386375 3.234650484962298e-09
  endloop
endfacet
facet normal 0.9914448613738113 -0.13052619222004555 -8.281736026691764e-10
  outer loop
    vertex 47.23059268567005 -53.99882084917131 -1.6918803094623236e-09
    vertex 47.28170394623644 -53.610592300552156 2.999999967629342
    vertex 47.23059268567005 -53.99882086820593 2.9999999651660767
  endloop
endfacet
facet normal 0.9914448613738113 -0.13052619222004555 -8.281736026691764e-10
  outer loop
    vertex 47.28170394623644 -53.610592300552156 2.999999967629342
    vertex 47.23059268567005 -53.99882084917131 -1.6918803094623236e-09
    vertex 47.28170394623644 -53.610592281517526 7.713850877499873e-10
  endloop
endfacet
facet normal 0.9238795325112853 -0.38268343236509306 -2.4280821456073475e-09
  outer loop
    vertex 47.0807420519131 -54.360592281517526 -3.987278036909902e-09
    vertex 47.23059268567005 -53.99882086820593 2.9999999651660767
    vertex 47.0807420519131 -54.360592300552156 2.9999999628706786
  endloop
endfacet
facet normal 0.9238795325112853 -0.38268343236509306 -2.4280821456073475e-09
  outer loop
    vertex 47.23059268567005 -53.99882086820593 2.9999999651660767
    vertex 47.0807420519131 -54.360592281517526 -3.987278036909902e-09
    vertex 47.23059268567005 -53.99882084917131 -1.6918803094623236e-09
  endloop
endfacet
facet normal 0.7933533402912447 -0.6087614290087081 -3.862520902917687e-09
  outer loop
    vertex 46.84236411801627 -54.671252453297356 -5.958381028847714e-09
    vertex 47.0807420519131 -54.360592300552156 2.9999999628706786
    vertex 46.84236411801627 -54.67125247233198 2.9999999608995758
  endloop
endfacet
facet normal 0.7933533402912447 -0.6087614290087081 -3.862520902917687e-09
  outer loop
    vertex 47.0807420519131 -54.360592300552156 2.9999999628706786
    vertex 46.84236411801627 -54.671252453297356 -5.958381028847714e-09
    vertex 47.0807420519131 -54.360592281517526 -3.987278036909902e-09
  endloop
endfacet
facet normal 0.6087614290087172 -0.7933533402912378 -5.033735243811973e-09
  outer loop
    vertex 46.84236411801627 -54.671252453297356 -5.958381028847714e-09
    vertex 46.53170394623644 -54.909630406228814 2.9999999593870954
    vertex 46.53170394623644 -54.90963038719419 -7.470861591862831e-09
  endloop
endfacet
facet normal 0.6087614290087172 -0.7933533402912378 -5.033735243811973e-09
  outer loop
    vertex 46.53170394623644 -54.909630406228814 2.9999999593870954
    vertex 46.84236411801627 -54.671252453297356 -5.958381028847714e-09
    vertex 46.84236411801627 -54.67125247233198 2.9999999608995758
  endloop
endfacet
facet normal 0.38268343236508084 -0.9238795325112906 -5.861908846481196e-09
  outer loop
    vertex 46.53170394623644 -54.90963038719419 -7.470861591862831e-09
    vertex 46.169932513890224 -55.059481039985755 2.9999999584363106
    vertex 46.169932513890224 -55.05948102095113 -8.421646426060025e-09
  endloop
endfacet
facet normal 0.38268343236508084 -0.9238795325112906 -5.861908846481196e-09
  outer loop
    vertex 46.169932513890224 -55.059481039985755 2.9999999584363106
    vertex 46.53170394623644 -54.90963038719419 -7.470861591862831e-09
    vertex 46.53170394623644 -54.909630406228814 2.9999999593870954
  endloop
endfacet
facet normal 0.13052619222004555 -0.9914448613738113 -6.290603048525098e-09
  outer loop
    vertex 46.169932513890224 -55.05948102095113 -8.421646426060025e-09
    vertex 45.78170394623645 -55.110592300552156 2.9999999581120154
    vertex 45.78170394623645 -55.110592281517526 -8.745941161569791e-09
  endloop
endfacet
facet normal 0.13052619222004555 -0.9914448613738113 -6.290603048525098e-09
  outer loop
    vertex 45.78170394623645 -55.110592300552156 2.9999999581120154
    vertex 46.169932513890224 -55.05948102095113 -8.421646426060025e-09
    vertex 46.169932513890224 -55.059481039985755 2.9999999584363106
  endloop
endfacet
facet normal -0.13052619222004366 -0.9914448613738114 -6.290603048525099e-09
  outer loop
    vertex 45.78170394623645 -55.110592300552156 2.9999999581120154
    vertex 45.39347537858266 -55.05948102095113 -8.421646426060025e-09
    vertex 45.78170394623645 -55.110592281517526 -8.745941161569791e-09
  endloop
endfacet
facet normal -0.13052619222004366 -0.9914448613738114 -6.290603048525099e-09
  outer loop
    vertex 45.39347537858266 -55.05948102095113 -8.421646426060025e-09
    vertex 45.78170394623645 -55.110592300552156 2.9999999581120154
    vertex 45.39347537858266 -55.059481039985755 2.9999999584363106
  endloop
endfacet
facet normal -0.3826834323650859 -0.9238795325112883 -5.861908846481182e-09
  outer loop
    vertex 45.39347537858266 -55.059481039985755 2.9999999584363106
    vertex 45.03170394623645 -54.90963038719419 -7.470861591862831e-09
    vertex 45.39347537858266 -55.05948102095113 -8.421646426060025e-09
  endloop
endfacet
facet normal -0.3826834323650859 -0.9238795325112883 -5.861908846481182e-09
  outer loop
    vertex 45.03170394623645 -54.90963038719419 -7.470861591862831e-09
    vertex 45.39347537858266 -55.059481039985755 2.9999999584363106
    vertex 45.03170394623645 -54.909630406228814 2.9999999593870954
  endloop
endfacet
facet normal -0.6087614290087172 -0.7933533402912378 -5.033735243811973e-09
  outer loop
    vertex 45.03170394623645 -54.909630406228814 2.9999999593870954
    vertex 44.72104377445662 -54.671252453297356 -5.958381028847714e-09
    vertex 45.03170394623645 -54.90963038719419 -7.470861591862831e-09
  endloop
endfacet
facet normal -0.6087614290087172 -0.7933533402912378 -5.033735243811973e-09
  outer loop
    vertex 44.72104377445662 -54.671252453297356 -5.958381028847714e-09
    vertex 45.03170394623645 -54.909630406228814 2.9999999593870954
    vertex 44.72104377445662 -54.67125247233198 2.9999999608995758
  endloop
endfacet
facet normal -0.7933533402912447 -0.6087614290087081 -3.862520902917687e-09
  outer loop
    vertex 44.48266584055979 -54.360592300552156 2.9999999628706786
    vertex 44.72104377445662 -54.671252453297356 -5.958381028847714e-09
    vertex 44.72104377445662 -54.67125247233198 2.9999999608995758
  endloop
endfacet
facet normal -0.7933533402912447 -0.6087614290087081 -3.862520902917687e-09
  outer loop
    vertex 44.72104377445662 -54.671252453297356 -5.958381028847714e-09
    vertex 44.48266584055979 -54.360592300552156 2.9999999628706786
    vertex 44.48266584055979 -54.360592281517526 -3.987278036909902e-09
  endloop
endfacet
facet normal -0.9238795325112853 -0.38268343236509306 -2.4280821456073475e-09
  outer loop
    vertex 44.33281520680284 -53.99882086820593 2.9999999651660767
    vertex 44.48266584055979 -54.360592281517526 -3.987278036909902e-09
    vertex 44.48266584055979 -54.360592300552156 2.9999999628706786
  endloop
endfacet
facet normal -0.9238795325112853 -0.38268343236509306 -2.4280821456073475e-09
  outer loop
    vertex 44.48266584055979 -54.360592281517526 -3.987278036909902e-09
    vertex 44.33281520680284 -53.99882086820593 2.9999999651660767
    vertex 44.33281520680284 -53.99882084917131 -1.6918803094623236e-09
  endloop
endfacet
facet normal -0.9914448613738113 -0.13052619222004555 -8.281736026691762e-10
  outer loop
    vertex 44.28170394623645 -53.610592300552156 2.999999967629342
    vertex 44.33281520680284 -53.99882084917131 -1.6918803094623236e-09
    vertex 44.33281520680284 -53.99882086820593 2.9999999651660767
  endloop
endfacet
facet normal -0.9914448613738113 -0.13052619222004555 -8.281736026691762e-10
  outer loop
    vertex 44.33281520680284 -53.99882084917131 -1.6918803094623236e-09
    vertex 44.28170394623645 -53.610592300552156 2.999999967629342
    vertex 44.28170394623645 -53.610592281517526 7.713850877499873e-10
  endloop
endfacet
facet normal -0.9914448613738113 0.13052619222004555 8.281736026691764e-10
  outer loop
    vertex 44.33281520680284 -53.22236373289838 2.9999999700926074
    vertex 44.28170394623645 -53.610592281517526 7.713850877499873e-10
    vertex 44.28170394623645 -53.610592300552156 2.999999967629342
  endloop
endfacet
facet normal -0.9914448613738113 0.13052619222004555 8.281736026691764e-10
  outer loop
    vertex 44.28170394623645 -53.610592281517526 7.713850877499873e-10
    vertex 44.33281520680284 -53.22236373289838 2.9999999700926074
    vertex 44.33281520680284 -53.22236371386375 3.234650484962298e-09
  endloop
endfacet
facet normal -0.9238795325112853 0.38268343236509306 2.4280821456073475e-09
  outer loop
    vertex 44.48266584055979 -52.860592300552156 2.9999999723880055
    vertex 44.33281520680284 -53.22236371386375 3.234650484962298e-09
    vertex 44.33281520680284 -53.22236373289838 2.9999999700926074
  endloop
endfacet
facet normal -0.9238795325112853 0.38268343236509306 2.4280821456073475e-09
  outer loop
    vertex 44.33281520680284 -53.22236371386375 3.234650484962298e-09
    vertex 44.48266584055979 -52.860592300552156 2.9999999723880055
    vertex 44.48266584055979 -52.86059228151753 5.530048917401497e-09
  endloop
endfacet
facet normal -0.7933533402912447 0.6087614290087081 3.862520902917687e-09
  outer loop
    vertex 44.72104377445662 -52.54993212877233 2.999999974359108
    vertex 44.48266584055979 -52.86059228151753 5.530048917401497e-09
    vertex 44.48266584055979 -52.860592300552156 2.9999999723880055
  endloop
endfacet
facet normal -0.7933533402912447 0.6087614290087081 3.862520902917687e-09
  outer loop
    vertex 44.48266584055979 -52.86059228151753 5.530048917401497e-09
    vertex 44.72104377445662 -52.54993212877233 2.999999974359108
    vertex 44.72104377445662 -52.5499321097377 7.501151204347688e-09
  endloop
endfacet
facet normal -0.6087614290087172 0.7933533402912378 5.033735243811973e-09
  outer loop
    vertex 44.72104377445662 -52.54993212877233 2.999999974359108
    vertex 45.03170394623645 -52.31155417584087 9.013631767362805e-09
    vertex 44.72104377445662 -52.5499321097377 7.501151204347688e-09
  endloop
endfacet
facet normal -0.6087614290087172 0.7933533402912378 5.033735243811973e-09
  outer loop
    vertex 45.03170394623645 -52.31155417584087 9.013631767362805e-09
    vertex 44.72104377445662 -52.54993212877233 2.999999974359108
    vertex 45.03170394623645 -52.31155419487549 2.9999999758715887
  endloop
endfacet
facet normal -0.38268343236508084 0.9238795325112906 5.861908846481196e-09
  outer loop
    vertex 45.03170394623645 -52.31155419487549 2.9999999758715887
    vertex 45.393475378582664 -52.16170354208393 9.96441660156e-09
    vertex 45.03170394623645 -52.31155417584087 9.013631767362805e-09
  endloop
endfacet
facet normal -0.38268343236508084 0.9238795325112906 5.861908846481196e-09
  outer loop
    vertex 45.393475378582664 -52.16170354208393 9.96441660156e-09
    vertex 45.03170394623645 -52.31155419487549 2.9999999758715887
    vertex 45.393475378582664 -52.16170356111855 2.9999999768223735
  endloop
endfacet
facet normal -0.13052619222004555 0.9914448613738113 6.290603048525098e-09
  outer loop
    vertex 45.393475378582664 -52.16170356111855 2.9999999768223735
    vertex 45.78170394623645 -52.11059228151753 1.0288712042061388e-08
    vertex 45.393475378582664 -52.16170354208393 9.96441660156e-09
  endloop
endfacet
facet normal -0.13052619222004555 0.9914448613738113 6.290603048525098e-09
  outer loop
    vertex 45.78170394623645 -52.11059228151753 1.0288712042061388e-08
    vertex 45.393475378582664 -52.16170356111855 2.9999999768223735
    vertex 45.78170394623645 -52.110592300552156 2.9999999771466683
  endloop
endfacet
facet normal 0.13052619222004366 0.9914448613738114 6.290603048525099e-09
  outer loop
    vertex 45.78170394623645 -52.11059228151753 1.0288712042061388e-08
    vertex 46.16993251389023 -52.16170356111855 2.9999999768223735
    vertex 46.16993251389023 -52.16170354208393 9.96441660156e-09
  endloop
endfacet
facet normal 0.13052619222004366 0.9914448613738114 6.290603048525099e-09
  outer loop
    vertex 46.16993251389023 -52.16170356111855 2.9999999768223735
    vertex 45.78170394623645 -52.11059228151753 1.0288712042061388e-08
    vertex 45.78170394623645 -52.110592300552156 2.9999999771466683
  endloop
endfacet
facet normal 0.3826834323650859 0.9238795325112883 5.861908846481182e-09
  outer loop
    vertex 46.16993251389023 -52.16170354208393 9.96441660156e-09
    vertex 46.53170394623644 -52.31155419487549 2.9999999758715887
    vertex 46.53170394623644 -52.31155417584087 9.013631767362805e-09
  endloop
endfacet
facet normal 0.3826834323650859 0.9238795325112883 5.861908846481182e-09
  outer loop
    vertex 46.53170394623644 -52.31155419487549 2.9999999758715887
    vertex 46.16993251389023 -52.16170354208393 9.96441660156e-09
    vertex 46.16993251389023 -52.16170356111855 2.9999999768223735
  endloop
endfacet
facet normal 0.6087614290087172 0.7933533402912378 5.033735243811973e-09
  outer loop
    vertex 46.53170394623644 -52.31155417584087 9.013631767362805e-09
    vertex 46.84236411801627 -52.54993212877233 2.999999974359108
    vertex 46.84236411801627 -52.5499321097377 7.501151204347688e-09
  endloop
endfacet
facet normal 0.6087614290087172 0.7933533402912378 5.033735243811973e-09
  outer loop
    vertex 46.84236411801627 -52.54993212877233 2.999999974359108
    vertex 46.53170394623644 -52.31155417584087 9.013631767362805e-09
    vertex 46.53170394623644 -52.31155419487549 2.9999999758715887
  endloop
endfacet
facet normal 0.7933533402912447 0.6087614290087081 3.862520902917687e-09
  outer loop
    vertex 47.0807420519131 -52.86059228151753 5.530048917401497e-09
    vertex 46.84236411801627 -52.54993212877233 2.999999974359108
    vertex 47.0807420519131 -52.860592300552156 2.9999999723880055
  endloop
endfacet
facet normal 0.7933533402912447 0.6087614290087081 3.862520902917687e-09
  outer loop
    vertex 46.84236411801627 -52.54993212877233 2.999999974359108
    vertex 47.0807420519131 -52.86059228151753 5.530048917401497e-09
    vertex 46.84236411801627 -52.5499321097377 7.501151204347688e-09
  endloop
endfacet
facet normal 0.9238795325112853 0.38268343236509306 2.4280821456073475e-09
  outer loop
    vertex 47.23059268567005 -53.22236371386375 3.234650484962298e-09
    vertex 47.0807420519131 -52.860592300552156 2.9999999723880055
    vertex 47.23059268567005 -53.22236373289838 2.9999999700926074
  endloop
endfacet
facet normal 0.9238795325112853 0.38268343236509306 2.4280821456073475e-09
  outer loop
    vertex 47.0807420519131 -52.860592300552156 2.9999999723880055
    vertex 47.23059268567005 -53.22236371386375 3.234650484962298e-09
    vertex 47.0807420519131 -52.86059228151753 5.530048917401497e-09
  endloop
endfacet
endsolid MotorBracket
